<?xml version="1.0" encoding="utf-8"?>
<!-- Generator: Adobe Illustrator 27.0.0, SVG Export Plug-In . SVG Version: 6.00 Build 0)  -->
<svg version="1.1" id="Layer_1" xmlns="http://www.w3.org/2000/svg" xmlns:xlink="http://www.w3.org/1999/xlink" x="0px" y="0px"
	 viewBox="0 0 512 512" style="enable-background:new 0 0 512 512;" xml:space="preserve">
<style type="text/css">
	.st0{fill:#FFFFFF;}
	.st1{fill:#E03A3E;}
	.st2{fill:#EEB310;}
	.st3{fill:#0668B3;}
	.st4{fill:#FAE3B6;}
</style>
<g id="XMLID_1_">
	<path id="XMLID_3_" class="st0" d="M452.35,138.83c0-2.1,5.75-3.79,9.4-4.63c-2.52-4.35-6.45-4.63-7.43-4.77
		c-2.95-0.42-4.77-0.56-10.1,5.47c2.1-10.8-4.91-12.34-5.61-12.62c-0.56-0.28-3.51,0.14-5.05,1.82c1.96,2.1,5.33,3.65,6.03,7.29
		c0.7,3.65-1.12,5.61-2.8,9.82c-0.42,0.28-3.37,6.59-5.05,10.24c0.84-3.23,1.96-10.1,1.68-11.36
		c-3.51-14.16-18.37-16.83-18.09-26.51c0.14-5.47,1.12-5.61,1.68-8.84c1.4-7.15-3.51-12.34-3.51-12.34
		c-0.98,0.14-4.63,0.56-7.99,0.84l0.42-0.84c2.1-0.28,4.07-0.56,4.07-0.56c14.31-1.68,18.51-9.54,18.93-13.6
		c1.12-14.16-9.82-19.07-17.81-19.07c-8.7,0-9.68,3.79-10.38,6.17c-1.12,3.93,3.09,7.57,6.17,7.85c1.54,0.14,7.15,1.4,8.41-2.38
		c0.7-1.96,0.7-1.12,2.1,0.84c1.54,2.1,1.12,4.63-0.84,5.89c-2.38,1.54-5.47,1.96-10.24,1.96c-4.63,0-10.52-1.12-13.74-2.8
		c-3.09-1.68-7.99-6.31-7.71-11.36c0.28-5.05,6.31-7.71,8.41-9.12c-2.1-2.1-4.21-2.38-7.71-1.96c-6.45,0.84-8.13,5.75-8.41,7.71
		c-0.28,1.96,2.24,5.75,3.09,6.73c0.98,0.98,1.96,1.4,0.42,1.96c-0.56,0.14-1.68,0.7-3.37-0.98c-4.77-4.49-3.93-10.24-4.07-11.5
		c-0.28-2.24-0.42-11.36-0.7-13.04c-0.42-1.96-2.24-5.33-5.05-7.01c-0.14,0.98-1.68,9.26-3.09,9.68
		c-2.66-1.96-6.59-10.8-16.55-11.36c-2.38-0.14-2.95,0.42-3.93,1.68c3.09,1.68,8.7,10.66,8.41,12.06c-2.52-2.38-9.96-2.66-9.96-2.66
		c-1.68,0,4.07,4.49,5.33,5.47c1.96,1.54,6.31,4.77,8.56,6.17c2.52,1.54,7.43,5.33,7.43,5.33s0.42,1.4-0.28,2.1
		c0,0-0.42-0.42-3.93-2.1c-3.79-1.96-15.71-8.41-18.23-9.82c-2.24-1.26-6.87-3.51-14.73-3.51c-9.82,0-13.74,7.57-13.74,14.59
		c0,0.28,0,0.56,0,0.98l-0.7,0.42l-0.98-0.42c-0.84-16.27-1.54-22.3-18.09-30.01c-0.14,0.42,4.63,10.66,5.33,16.55
		c0.28,2.24,0.28,2.24,0.28,2.24c-0.7,0.56-2.24,0.28-2.95-0.7c-0.56-0.98-9.82-14.45-15.57-15.29c-0.42,0.42,2.38,3.23,3.37,5.61
		c0.7,1.54,1.26,4.49,0.28,5.19c-1.68,1.12-4.07,0.42-5.89-0.7c-0.98-0.56-7.15-3.65-6.59-15.01c0.28-0.84,1.12-4.21,5.33-4.91
		c-0.84-2.38-3.09-3.23-5.61-2.52c-2.8,0.84-5.33,3.51-6.73,3.79l-1.4-3.09c0,0-1.96-6.73-6.31-9.12l-0.7-0.14l-0.98,0.28
		c-4.35,2.52-6.45,8.98-6.45,8.98l-1.4,3.09c-1.4-0.28-3.93-2.95-6.73-3.79c-2.52-0.7-4.77,0.14-5.61,2.52
		c4.21,0.7,5.05,3.93,5.33,4.91c0.56,11.36-5.61,14.59-6.59,15.01c-1.82,0.98-4.21,1.82-5.89,0.7c-0.98-0.7-0.42-3.65,0.28-5.19
		c0.98-2.38,3.79-5.19,3.37-5.61c-5.61,0.84-14.87,14.45-15.57,15.29c-0.7,1.12-2.24,1.4-2.95,0.84c0,0,0,0,0.28-2.24
		c0.56-5.89,5.47-16.13,5.33-16.55c-15.71,7.29-17.11,13.18-17.95,27.91l-1.82,0.28c-0.28-6.73-4.21-13.6-13.74-13.6
		c-7.85,0-12.48,2.24-14.73,3.51c-2.66,1.54-14.45,7.85-18.23,9.82c-3.51,1.82-3.79,2.1-3.79,2.1c-0.7-0.7-0.28-2.1-0.28-2.1
		s4.91-3.79,7.43-5.33c2.24-1.4,6.59-4.63,8.56-6.17c1.12-0.98,6.87-5.47,5.33-5.47c0,0-7.43,0.28-9.96,2.66
		c-0.28-1.4,5.33-10.38,8.41-12.06c-0.98-1.26-1.4-1.82-3.79-1.68c-10.1,0.42-14.02,9.4-16.55,11.36c-1.4-0.42-2.95-8.7-3.09-9.68
		c-2.95,1.68-4.63,5.05-5.05,7.01c-0.28,1.68-0.42,10.8-0.7,13.04c-0.14,1.26,0.56,7.01-4.07,11.5c-1.68,1.68-2.8,1.12-3.37,0.98
		c-1.4-0.56-0.42-0.98,0.42-1.96c0.98-0.98,3.37-4.77,3.09-6.73c-0.28-1.96-1.96-6.87-8.41-7.71c-3.51-0.42-5.47-0.28-7.71,1.96
		c2.24,1.4,8.13,4.07,8.41,9.12s-4.63,9.68-7.71,11.36c-3.09,1.68-9.12,2.8-13.74,2.8S97.52,79.37,95,77.83
		c-1.82-1.26-2.38-3.79-0.84-5.89c1.4-1.82,1.4-2.8,2.1-0.84c1.26,3.79,6.87,2.52,8.41,2.38c3.09-0.28,7.29-3.93,6.17-7.85
		c-0.7-2.38-1.68-6.17-10.38-6.17c-7.99,0-18.93,5.05-17.81,19.07c0.28,4.07,4.63,11.92,18.93,13.6c0,0,2.1,0.28,4.35,0.56
		l0.14,0.84c-3.51-0.28-7.29-0.7-8.27-0.84c0,0-4.91,5.19-3.51,12.34c0.56,3.09,1.54,3.23,1.68,8.84
		c0.28,9.68-14.59,12.34-18.09,26.51c-0.28,1.26,0.84,8.13,1.68,11.36c-1.68-3.65-4.77-9.96-5.05-10.24
		c-1.68-4.07-3.51-6.03-2.8-9.68c0.7-3.65,4.07-5.19,6.03-7.29c-1.54-1.68-4.49-2.1-5.05-1.82c-0.7,0.28-7.71,1.82-5.61,12.62
		c-5.33-6.03-7.15-6.03-10.1-5.47c-0.98,0.14-4.91,0.42-7.43,4.77c3.65,0.84,9.4,2.52,9.4,4.63c-1.54,1.54-6.73,5.89-7.15,8.84
		c-0.56,4.77,1.68,6.17,3.09,6.73c1.12-6.03,3.79-8.7,6.73-9.12c2.52-0.28,5.75-0.42,9.96,1.96c4.77,2.66,9.12,6.59,9.12,6.59v-0.14
		c1.68,1.82,5.89,4.91,10.8,4.49c5.75-0.42,8.84-5.61,8.84-8.27c0-2.66-2.52-4.49-4.07-4.77c-1.4-0.28-3.51-0.14-5.05,1.68
		c-0.98,1.26-2.24,1.96-3.23,0.84c-1.54-1.96-0.28-4.49,0.7-5.61c1.26-1.26,3.51-2.38,6.45-2.38c2.24,0,13.04,3.09,17.81,21.46
		c4.77,18.23,3.09,26.79,2.38,31.28c-0.7,4.63-2.38,9.4-4.77,12.2c0,0-0.42,0-0.7-2.1c1.96-5.05,2.38-8.98,0.28-15.71
		s-8.98-12.62-9.68-15.71c-0.56-0.98,0.84-9.54,0.84-9.54s-9.96,0.56-10.52,10.52c-0.28,6.17-7.29-9.96-20.2-1.96
		c-5.47,3.37-5.33,7.85-4.77,9.68c3.09-1.12,3.09-1.4,6.73-1.68c2.38-0.14,12.48,2.24,12.76,7.29c-5.33,0.98-7.99,3.65-9.4,6.31
		c-1.4,2.66-1.26,4.77,0.7,7.99c1.68-3.37,5.61-5.19,11.36-5.75c10.38,0,15.85,9.12,15.85,16.13c0,5.33-0.42,9.26-2.66,12.76
		c-1.26,1.96-3.93,7.01-13.88,6.17c-2.66-0.42-4.49-1.82-4.91-2.38c-3.23-3.37-1.12-8.41-1.12-8.41c0.28,4.21,6.17,5.61,8.84,4.77
		c1.82-0.7,5.19-1.82,4.77-7.57c-0.42-5.75-7.57-11.08-15.29-7.43c-9.4,5.19-8.84,19.77-7.71,25.67c1.12,5.47,7.01,23.56,6.45,30.01
		c-1.26,17.67-13.6,12.76-14.45,12.2c-0.84-0.56-2.24-1.54-2.8-2.66c-0.56-1.4-0.84-2.24-0.7-3.93c0.14-2.52,2.66-3.93,2.24-2.66
		c-0.84,2.38,1.4,4.49,2.1,4.77c2.52,0.7,7.01-0.42,7.01-4.77c0-4.35-3.51-7.43-8.41-6.87c-8.7,0.84-9.4,10.1-9.26,12.62
		c0.14,1.54,0.84,3.93,1.54,4.91l0,0c2.1,3.51,6.45,7.01,10.66,7.71c10.66,1.82,16.55-3.09,18.37-5.05
		c2.66-2.38,4.77-7.57,4.77-7.57s4.49,1.4,7.43,9.12c2.1,7.15-0.7,12.76-3.37,16.27c-5.47-4.21-4.77-11.78-4.77-11.78
		s-12.9,12.06-9.96,22.58c0.28,0.84,2.1,8.27,12.34,10.52c1.68-0.7,3.09-3.37,4.63-3.37c3.09-0.28,10.38,12.06,12.06,14.45
		c1.68,2.66,5.05,7.57,5.05,9.96s-10.1-4.91-14.16-8.84c-3.93-3.93-2.8-8.27-6.17-8.27c-0.7,3.09-0.14,5.61-0.84,5.89
		c-0.7,0.28-7.85-7.01-12.62-6.03c-4.77,0.98-11.08,7.99-10.38,12.9c1.54,1.12,9.12-3.09,11.08-3.37c1.68-0.28,3.93,0.28,3.09,2.52
		c-1.96,0.98-8.41,8.56-6.45,9.68c1.96,1.12,2.52-2.8,16.41-2.66c8.7,0.7,11.5,4.77,11.36,7.85c0,1.96-0.42,3.79-1.54,4.07
		c-2.1,0.7-4.91,0.7-12.62-0.84c-6.59-1.26-6.73-2.8-6.45,0.14c0.14,1.68,5.75,3.65,5.75,6.31s-14.16,6.03-3.51,20.62
		c5.47,5.89,17.25,6.17,20.2,4.77c0.7-1.4-8.41-5.75-7.29-11.5c0.14-0.98,2.1-5.47,7.57-5.89c3.37-0.28,0.42,6.45,7.43,7.01
		c0-8.98,4.63-8.56,4.63-8.56s2.52-0.42,8.7,1.82c4.49,1.68,7.99,2.38,9.4,5.61c1.4,3.09,0.28,1.68-1.96,1.68
		c-2.1,0-4.63-1.68-7.57-1.26c-2.95,0.42-5.75,3.65-6.45,7.01c-0.7,3.37-1.26,10.8,2.38,11.78c0,0,1.82-7.01,11.78-11.22
		c2.95-1.26,7.15-1.12,11.78,0.56c4.63,1.68,21.18,9.68,37.73,9.68s27.77-12.2,29.87-16.83c0.56-1.26,0.98-2.52,1.4-3.65
		c0.14,1.68,1.4,4.49,3.37,5.89c2.1,1.68,7.01,0.84,4.91,1.54c-2.24,0.7-10.66,4.21-10.66,6.03c0,1.96,9.26-1.26,9.96-0.56
		s1.54,0.84-0.56,2.38c-2.1,1.4-15.99,3.65-15.85,7.01c0.14,3.09,0.7,11.36,2.38,11.22c5.33-10.52,25.67-16.55,21.6-13.74
		c-0.98,1.12-9.4,7.43-6.87,11.36c0.98,1.4,6.31,11.92,7.29,12.2c0.98,0.28-1.54-19.21,12.34-23.84c5.05-1.68-15.01,13.74,11.5,33.8
		c0.42,0.14,0,0,0,0l0.42,0.14h1.54c26.51-20.06,6.45-35.48,11.5-33.8c13.74,4.63,11.36,24.12,12.34,23.84
		c0.98-0.28,6.31-10.8,7.29-12.2c2.52-3.93-5.75-10.24-6.87-11.36c-4.07-2.8,16.27,3.23,21.6,13.74c1.68,0.28,2.24-7.99,2.38-11.22
		c0.14-3.37-13.74-5.47-15.85-7.01c-2.1-1.54-1.26-1.68-0.56-2.38c0.7-0.7,9.96,2.52,9.96,0.56c0-1.96-8.56-5.33-10.8-6.03
		c-2.24-0.7,2.66,0.14,4.91-1.54c1.82-1.4,3.09-4.21,3.37-5.89c0.42,1.26,0.84,2.38,1.4,3.65c2.1,4.63,13.18,16.83,29.87,16.83
		c16.55,0,33.24-7.99,37.73-9.68c4.63-1.68,8.84-1.82,11.78-0.56c9.96,4.07,11.78,11.22,11.78,11.22c3.65-0.98,3.09-8.41,2.38-11.78
		s-3.51-6.59-6.45-7.01c-2.95-0.42-5.47,1.26-7.57,1.26c-2.24,0-3.37,1.4-1.96-1.68s4.91-3.93,9.4-5.61c6.17-2.24,8.7-1.82,8.7-1.82
		s4.63-0.42,4.63,8.56c7.01-0.56,4.07-7.29,7.43-7.01c5.47,0.42,7.43,4.91,7.57,5.89c1.12,5.75-7.99,10.1-7.29,11.5
		c2.95,1.54,14.73,1.26,20.2-4.63c10.66-14.45-3.51-17.95-3.51-20.62c0-2.66,5.61-4.63,5.75-6.31c0.28-2.8,0.14-1.4-6.45-0.14
		c-7.71,1.54-10.52,1.4-12.62,0.84c-1.12-0.42-1.54-2.24-1.54-4.07c-0.14-3.09,2.8-7.15,11.36-7.85
		c14.02-0.28,14.59,3.79,16.41,2.66c1.96-1.12-4.49-8.7-6.45-9.68c-0.84-2.24,1.4-2.66,3.09-2.52c1.96,0.28,9.4,4.49,11.08,3.37
		c0.7-4.77-5.47-11.92-10.38-12.9c-4.77-0.98-11.92,6.31-12.62,6.17c-0.7-0.28-0.14-2.8-0.84-5.89c-3.37,0-2.24,4.21-6.17,8.27
		c-3.93,3.93-14.16,11.22-14.16,8.84s3.37-7.29,5.05-9.96c1.68-2.52,8.98-14.73,12.06-14.45c1.4,0.14,2.8,2.66,4.63,3.37
		c10.24-2.24,12.06-9.68,12.34-10.52c2.95-10.52-9.96-22.58-9.96-22.58s0.7,7.57-4.77,11.78c-2.66-3.51-5.47-9.12-3.37-16.27
		c2.95-7.71,7.43-9.12,7.43-9.12s2.24,5.19,4.91,7.57c1.82,2.1,7.71,7.01,18.37,5.19c4.21-0.7,8.56-4.21,10.66-7.71l0,0
		c0.7-0.98,1.4-3.23,1.54-4.77c0.14-2.66-0.56-11.78-9.26-12.62c-4.91-0.56-8.41,2.52-8.41,6.87s4.35,5.47,7.01,4.77
		c0.7-0.28,2.95-2.24,2.1-4.77c-0.42-1.4,1.96,0.14,2.24,2.66c0.14,1.68-0.14,2.52-0.7,3.93c-0.56,0.98-1.96,2.1-2.8,2.66
		c-0.84,0.56-13.18,5.33-14.45-12.2c-0.42-6.31,5.33-24.54,6.45-30.01c1.12-5.89,1.68-20.48-7.71-25.67
		c-7.71-3.65-14.73,1.68-15.15,7.43c-0.42,5.75,2.8,7.01,4.77,7.57c2.52,0.98,8.56-0.42,8.84-4.77c0,0,2.1,5.05-1.12,8.41
		c-0.56,0.56-2.24,1.82-4.91,2.38c-9.96,0.84-12.62-4.21-13.88-6.17c-2.24-3.51-2.66-7.43-2.52-12.76
		c0.14-7.01,5.47-16.13,15.85-16.13c5.75,0.56,9.68,2.38,11.36,5.75c1.96-3.09,2.24-5.33,0.7-7.99c-1.4-2.66-4.07-5.33-9.4-6.31
		c0.28-5.05,10.38-7.43,12.76-7.29c3.65,0.28,3.65,0.56,6.73,1.68c0.42-1.96,0.7-6.31-4.77-9.68c-12.9-7.85-19.92,8.27-20.2,1.96
		c-0.42-9.96-10.52-10.52-10.52-10.52s1.4,8.41,0.84,9.54c-0.7,2.95-7.43,8.98-9.68,15.71s-1.68,10.66,0.28,15.71
		c-0.28,2.1-0.7,2.1-0.7,2.1c-2.38-2.95-4.07-7.71-4.77-12.34c-0.7-4.63-2.52-13.04,2.38-31.28c4.77-18.23,15.71-21.46,17.81-21.46
		c3.09,0,5.33,1.12,6.45,2.38c1.12,1.12,2.24,3.65,0.84,5.61c-0.98,1.26-2.24,0.56-3.23-0.84c-1.4-1.96-3.51-1.96-5.05-1.68
		c-1.4,0.28-4.07,2.1-4.07,4.77c0,2.66,3.09,7.71,8.84,8.27c4.91,0.42,9.12-2.66,10.8-4.49v0.14c0,0,4.35-4.07,9.12-6.59
		c4.21-2.38,7.43-2.24,9.96-1.96c2.8,0.42,5.61,3.09,6.73,9.12c1.26-0.56,3.65-1.96,3.09-6.73
		C459.22,144.72,453.89,140.38,452.35,138.83z"/>
	<path id="XMLID_4_" class="st1" d="M256,57.63c0,0,2.8,4.91,9.54,8.84c4.77,2.8,15.29,5.19,15.29,5.19
		c6.73,1.68,18.93,2.66,27.07,10.1c5.61,5.05,10.24,7.57,18.37,7.29c7.85-0.28,10.8-4.07,11.92-5.33c4.21-4.91,3.51-9.54,3.51-9.54
		c3.51,1.12,11.92,5.61,13.46,6.45c3.09,1.54,25.67,14.31,30.29,14.73c-2.38,3.23-4.21,3.65-5.75,3.65c-3.23,0-9.96-1.26-10.38,0.98
		c0,0-1.12,8.41,3.65,11.92c0,0-7.01,13.6-0.28,22.02c6.73-2.66,7.71-3.93,7.71-3.93c-0.7,3.09,0.14,6.73,2.8,6.45
		c1.26-0.14,2.8-0.14,3.79,0.56c0,0-7.57,4.07-12.2,19.21c-2.8,8.98-2.95,20.06-2.95,20.06H139.74c0,0,0.56-9.4-2.8-19.63
		c-4.77-14.87-12.06-19.49-12.06-19.49c1.68-0.7,2.52-0.7,3.93-0.56c4.21,0.56,2.8-4.91,2.38-6.31l7.99,3.93
		c6.59-10.66-0.56-22.02-0.56-22.02c4.63-2.95,3.93-11.92,3.93-11.92c-1.26-1.68-6.31-0.84-10.66-0.98c-1.4,0-3.51-0.56-5.47-3.65
		c7.15-2.24,28.05-13.6,29.45-14.59c1.4-0.98,14.16-6.59,14.16-6.59c-0.28,1.54,0.98,6.17,3.37,9.4c2.52,3.51,7.57,5.61,13.32,5.47
		c8.13-0.28,11.78-2.38,18.51-8.41c8.27-7.43,24.54-8.56,26.23-9.54c0,0,10.8-2.1,15.15-4.91C252.91,62.26,256,57.63,256,57.63z"/>
	<path id="XMLID_5_" class="st2" d="M450.24,273.05c-0.56,0.98-1.96,2.1-2.8,2.66c-0.84,0.56-13.18,5.47-14.45-12.2
		c-0.42-6.31,5.33-24.54,6.45-30.01c1.12-5.89,1.68-20.48-7.71-25.67c-7.71-3.65-14.73,1.68-15.29,7.43
		c-0.42,5.75,2.8,7.01,4.77,7.57c2.66,0.98,8.56-0.42,8.84-4.77c0,0,2.1,5.05-1.12,8.41c-0.56,0.56-2.24,1.82-4.91,2.38
		c-9.96,0.84-12.62-4.21-13.88-6.17c-2.24-3.51-2.66-7.43-2.52-12.76c0.14-7.01,5.47-16.13,15.85-16.13
		c5.75,0.56,9.68,2.38,11.36,5.75c1.96-3.09,2.24-5.33,0.7-7.99c-1.4-2.66-4.07-5.33-9.4-6.31c0.28-5.05,10.38-7.43,12.76-7.29
		c3.65,0.28,3.65,0.56,6.73,1.68c0.42-1.96,0.7-6.31-4.77-9.68c-12.9-7.85-19.92,8.27-20.2,1.96c-0.42-9.96-10.38-10.52-10.38-10.52
		s1.4,8.41,0.84,9.54c-0.7,2.95-7.43,8.98-9.68,15.71c-2.1,6.73-1.68,10.52,0.28,15.71c-0.28,2.24-0.7,2.24-0.7,2.24
		c-2.38-2.95-4.07-7.71-4.77-12.34c-0.7-4.63-2.52-13.04,2.38-31.28c4.77-18.37,15.71-21.46,17.81-21.46c3.09,0,5.33,1.12,6.45,2.38
		c1.12,1.12,2.24,3.65,0.84,5.61c-0.98,1.26-2.24,0.56-3.23-0.84c-1.4-1.96-3.51-1.96-5.05-1.68c-1.4,0.28-4.07,2.1-4.07,4.77
		c0,2.66,3.09,7.71,8.84,8.27c5.75,0.42,10.66-3.93,11.36-5.33s2.52-11.36,2.1-12.9c-3.51-14.16-18.37-16.83-18.09-26.51
		c0.14-5.47,1.12-5.61,1.68-8.84c1.4-7.15-3.51-12.34-3.51-12.34c-1.68,0.28-11.5,1.4-14.73,1.4c0,0-2.52,5.89-10.94,9.54
		c-5.47,2.38-7.85,2.1-11.22,1.12c-0.28,1.68,0.56,2.66,2.24,3.51c4.07,2.24,3.37,3.65,3.37,4.49c0,0.7-6.03,4.49-6.03,13.6
		c1.68-0.42,9.68-8.56,15.43-8.41c1.4,1.26-0.56,2.8-1.26,4.49s-1.96,4.77-1.96,7.71c2.66-1.4,6.03-3.65,9.4-3.65
		c3.37,0,8.41,3.09,8.41,4.77c-3.79,3.37-19.49,11.08-23.56,26.79c-4.07,15.71-2.38,36.88,1.26,46.98
		c3.65,10.1,10.38,23.84,24.54,29.17c4.91,1.68,8.13,1.12,9.12,0.98c3.09-0.56,6.45-2.66,7.43-3.09c0.7,0.98-0.98,5.19-3.79,10.1
		c-1.82,3.23-5.19,8.56-13.46,9.4c-5.89,0.14-8.84-7.29-4.07-8.84c0,2.24,0.56,3.09,2.38,4.07c1.54,0.84,3.51-0.28,4.21-1.4
		s0.7-4.49-0.98-6.03c-1.4-1.12-2.24-2.24-6.17-1.96c-3.93,0.28-9.54,7.71-5.05,14.73c0.98,1.54,3.51,5.47,9.12,6.03
		c4.07,0.28,10.94-2.38,13.6-4.77c2.66-2.24,2.66-3.51,5.61-3.65c1.68,1.96-5.61,7.99-7.01,8.84c-5.75,3.65-8.27,4.21-14.31,5.89
		c-6.59,1.82-7.01,5.05-8.98,9.54c2.95,0,3.93,0.28,6.31,0.7c2.24,0.42,3.37,1.68,3.65,2.38c1.96,6.45-0.42,15.01-1.12,19.92
		c0.98,2.24,10.38,5.89,12.9,1.26c-2.66-3.51-5.75-9.12-3.51-16.55c2.95-7.71,7.43-9.12,7.43-9.12s2.24,5.19,4.91,7.57
		c1.82,2.1,7.57,7.01,18.37,5.05c4.35-0.7,8.98-4.63,10.94-8.27L450.24,273.05z"/>
	<path id="XMLID_6_" class="st2" d="M455.85,277.12c0.7-0.98,1.4-3.37,1.54-4.91c0.14-2.66-0.56-11.78-9.26-12.62
		c-4.91-0.56-8.41,2.52-8.41,6.87s4.35,5.47,7.01,4.77c0.7-0.28,2.95-2.24,2.1-4.77c-0.42-1.4,1.96,0.14,2.24,2.66
		c0.14,1.68-0.14,2.52-0.7,3.93L455.85,277.12z"/>
	<path id="XMLID_7_" class="st2" d="M430.75,153.84c0,0,5.75-12.34,6.31-12.76c1.68-4.07,3.51-6.03,2.8-9.82
		c-0.7-3.65-4.07-5.19-6.03-7.29c1.54-1.68,4.49-2.1,5.05-1.82c0.56,0.28,7.71,1.82,5.61,12.62c5.33-6.03,7.15-6.03,10.1-5.47
		c0.98,0.14,4.91,0.42,7.43,4.77c-3.65,0.84-9.4,2.52-9.4,4.63c1.54,1.54,6.73,5.89,7.15,8.84c0.56,4.77-1.68,6.17-3.09,6.73
		c-1.12-6.03-3.79-8.7-6.73-9.12c-2.52-0.28-5.75-0.42-9.96,1.96C435.1,149.77,430.75,153.84,430.75,153.84z"/>
	<path id="XMLID_8_" class="st3" d="M287.13,243.6h101.4c-0.98,10.52,4.91,15.57,7.29,16.69c0,0-7.71,6.31-7.29,19.63
		c0,0,8.27-1.4,9.82,0.98c1.68,2.66-0.98,13.6-2.24,17.11c-3.79,0-108.97,0.14-108.97,0.14v62.55c0,1.4-8.84,2.52-14.31,4.35
		c-3.51,1.26-11.08,5.05-16.97,12.2c-6.45-7.15-11.78-10.66-15.43-12.2c-4.91-1.96-16.55-2.95-16.41-4.35c0-4.35,0-62.69,0-62.69
		H116.73c-0.56-1.68-1.82-6.73-2.24-9.68c-0.56-4.07-0.14-6.87-0.14-6.87c-0.14-1.54,4.21-2.66,9.26-1.54
		c0.84-13.6-7.29-19.63-7.29-19.63c4.63-2.52,8.13-8.27,7.29-16.69c3.51,0,100.42,0,100.42,0v-60.31h63.11L287.13,243.6
		L287.13,243.6z"/>
	<polygon id="XMLID_9_" class="st4" points="242.26,207.69 233.7,213.44 242.12,219.19 240.15,229.43 250.11,227.47 255.86,236.16 
		261.61,227.61 271.71,229.57 269.88,219.19 278.44,213.59 269.88,207.98 272.13,197.6 261.89,199.7 255.86,191.29 250.39,199.56 
		240.29,197.46 	"/>
	<path id="XMLID_14_" class="st4" d="M303.4,254.68h8.84v3.51h-8.84V254.68z M303.4,263.51h8.84v3.51h-8.84V263.51z M303.4,272.49
		h8.84v3.51h-8.84V272.49z M303.4,281.18h8.84v3.51h-8.84V281.18z"/>
	<path id="XMLID_15_" class="st4" d="M218.69,294.79h34.92v-2.95c0,0-3.23-3.09-16.83-3.09
		C229.21,289.6,222.06,291.84,218.69,294.79z"/>
	<path id="XMLID_16_" class="st4" d="M292.88,294.79h-34.92v-2.95c0,0,3.23-3.09,16.83-3.09
		C282.51,289.6,289.52,291.84,292.88,294.79z"/>
	<path id="XMLID_17_" class="st0" d="M219.82,288.9v-46c0,0,8.7-2.1,12.34-1.96c4.63,0,16.97,1.4,21.6,5.05c0,3.09,0,41.23,0,41.23
		s-7.71-2.1-14.31-2.1C229.35,284.97,219.82,288.9,219.82,288.9z"/>
	<path id="XMLID_18_" class="st0" d="M211.26,293.11v-45.16c0,0,2.38-2.24,4.49-3.09c0,2.24,0,45.16,0,45.16
		S211.68,291.98,211.26,293.11z"/>
	<path id="XMLID_23_" class="st3" d="M230.33,275.15c7.29-2.66,15.71,0,15.71,0.14l-0.7,1.96c0,0-7.71-2.52-14.31-0.14
		L230.33,275.15z M230.33,267.16c7.29-2.24,15.71,0.56,15.71,0.56l-0.7,2.1c0,0-7.71-2.52-14.45-0.56L230.33,267.16z M230.48,259.73
		c6.45-1.54,15.57,0.98,15.57,0.98l-0.7,2.1c0,0-8.56-2.38-14.45-0.98L230.48,259.73z M230.48,252.01c6.45-1.54,15.57,1.4,15.57,1.4
		l-0.7,2.1c0,0-8.56-2.8-14.45-1.4L230.48,252.01z"/>
	<path id="XMLID_24_" class="st2" d="M34.69,337.14L7.48,351.17c-7.57-1.54-10.66-12.34-3.23-19.07c0,0,12.76-8.13,28.61-14.31
		c20.06-7.99,41.79,38.29,28.19,51.75c0,0-0.84,1.12-6.87,3.51c-2.8,1.12-4.49,1.82-4.49,1.82c-5.61-3.65-7.57-13.18-5.19-16.27
		c-1.4,0.7-3.93,1.82-4.63,4.77c-3.51,15.57,16.69,37.59,47.68,38.85c29.31,1.26,52.17-2.38,77.28,5.47
		c25.1,7.85,52.73,45.72,91.02,45.72v40.25c-56.52,0-81.2-40.53-107.71-49.51c-24.54-8.27-56.38,0.7-86.39-7.29
		C23.89,426.9,3.7,394.36,8.32,372.2l32.12-17.11c7.71-3.93,9.4-1.96,9.4,1.26c0,3.37,0.14,11.22,6.31,9.54
		c-3.93-4.49,0.28-11.92-1.68-15.85c-1.68-3.37-6.45-4.35-12.48-1.82l-18.51,9.54c-0.56-2.8-1.82-4.91-3.79-6.17l25.95-13.88
		c-3.23-0.28-14.45-5.61-10.38-13.88C28.1,328.17,29.92,333.92,34.69,337.14z"/>
	<path id="XMLID_25_" class="st2" d="M477.31,337.14l27.21,14.02c7.57-1.54,10.66-12.34,3.23-19.07c0,0-12.76-8.13-28.61-14.31
		c-20.06-7.99-41.79,38.29-28.19,51.75c0,0,0.84,1.12,6.87,3.51c2.8,1.12,4.49,1.82,4.49,1.82c5.61-3.65,7.57-13.18,5.19-16.27
		c1.4,0.7,3.93,1.82,4.63,4.77c3.65,15.57-16.69,37.59-47.68,38.85c-29.31,1.26-52.17-2.38-77.28,5.47
		c-25.1,7.85-52.73,45.72-91.02,45.72v40.25c56.52,0,81.2-40.53,107.71-49.51c24.54-8.27,56.38,0.7,86.39-7.29
		c37.87-9.96,58.06-42.49,53.43-64.65l-31.98-17.11c-7.71-3.93-9.4-1.96-9.4,1.26c0,3.37-0.14,11.22-6.31,9.54
		c3.93-4.49-0.28-11.92,1.68-15.85c1.68-3.37,6.45-4.35,12.48-1.82l18.51,9.54c0.56-2.8,1.82-4.91,3.79-6.17l-25.95-13.88
		c3.23-0.28,14.45-5.61,10.38-13.88C483.9,328.17,482.08,333.92,477.31,337.14z"/>
	<path id="XMLID_26_" class="st0" d="M18.7,389.74l5.75-3.51l0.42,0.7c-1.54,1.4-2.38,2.95-2.52,4.35c-0.28,1.4,0,2.66,0.7,3.93
		c0.7,1.12,1.4,1.82,2.24,1.96c0.84,0.14,1.54,0,2.1-0.28c0.7-0.42,1.12-0.98,1.26-1.82c0.14-0.56,0-1.4-0.14-2.8l-0.28-2.1
		c-0.28-2.1-0.28-3.65,0.14-4.77c0.28-1.12,0.98-1.96,2.1-2.66c1.12-0.7,2.52-0.84,3.93-0.56c1.54,0.28,2.8,1.4,3.93,3.23
		c0.56,0.98,0.98,1.96,1.26,2.95c0.28,0.98,0.42,1.54,0.56,1.68c0.14,0.28,0.42,0.42,0.56,0.42c0.28,0,0.42,0,0.7-0.14l0.42,0.7
		l-5.05,3.09l-0.42-0.7c0.98-0.98,1.54-2.24,1.96-3.65c0.28-1.4,0.14-2.66-0.56-3.93c-0.56-0.84-1.12-1.4-1.82-1.68
		c-0.7-0.28-1.4-0.14-1.96,0.14c-0.7,0.42-1.12,0.98-1.26,1.68c-0.14,0.7,0,2.1,0.28,4.07l0.28,2.52c0.14,1.12,0.14,1.96,0,2.8
		c-0.28,1.54-1.12,2.52-2.38,3.37c-1.12,0.7-2.52,0.84-4.21,0.42s-3.09-1.68-4.49-3.93c-0.28-0.56-0.56-1.12-0.84-1.68
		c-0.28-0.56-0.42-1.26-0.56-1.82l-0.14-0.56l-0.14-0.42l-0.14-0.28c-0.14-0.28-0.28-0.42-0.56-0.42c-0.14,0-0.42,0-0.7,0.14
		L18.7,389.74z"/>
	<path id="XMLID_27_" class="st0" d="M31.6,407.41l0.42-0.56c0.7,0.56,1.12,0.84,1.54,0.98c0.7,0.14,1.26,0,1.82-0.56l8.84-9.68
		c0.56-0.56,0.7-1.26,0.42-1.82c-0.14-0.28-0.56-0.84-1.12-1.4l0.42-0.56l7.71,7.01l-0.42,0.56c-0.7-0.56-1.26-0.98-1.68-1.12
		c-0.56-0.14-1.12,0-1.68,0.56l-8.7,9.68c-0.56,0.56-0.7,1.12-0.56,1.54c0.14,0.56,0.56,0.98,1.26,1.68l-0.42,0.56L31.6,407.41z"/>
	<path id="XMLID_30_" class="st0" d="M59.93,407.69c0.28-0.56,0.42-0.84,0.7-0.98c0.28-0.14,0.84-0.14,1.54,0.14
		c2.1,0.98,3.23,2.66,3.23,5.05c0,1.54-0.42,3.09-1.12,4.91c-1.26,2.95-2.66,4.77-4.21,5.33c-1.54,0.56-3.09,0.56-4.63-0.14
		c-0.56-0.28-0.98-0.56-0.98-0.84c-0.14-0.28,0-0.7,0.14-1.26L59.93,407.69z M55.59,422.97c3.09,1.4,6.03,1.54,8.56,0.56
		c2.24-0.84,3.93-2.38,4.91-4.63c1.12-2.52,1.12-4.77,0.14-7.01c-1.12-2.38-3.23-4.35-6.59-5.75l-8.41-3.65l-0.28,0.56
		c0.7,0.42,1.12,0.7,1.4,0.98c0.42,0.42,0.42,0.98,0.14,1.68l-5.33,12.2c-0.28,0.7-0.7,0.98-1.4,0.98c-0.42,0-0.84-0.14-1.54-0.42
		l-0.28,0.56L55.59,422.97z"/>
	<path id="XMLID_31_" class="st0" d="M87.98,429.85l-17.25-2.24l0.14-0.7c0.84,0,1.4,0,1.82-0.14c0.56-0.14,0.98-0.7,0.98-1.4
		l1.68-12.9c0.14-0.84-0.14-1.4-0.7-1.68c-0.28-0.28-0.84-0.42-1.68-0.56l0.14-0.7l16.97,2.1l-0.7,5.33l-0.7-0.14
		c-0.14-1.82-0.7-3.09-1.4-3.79c-0.84-0.7-2.38-1.26-4.77-1.54c-0.84-0.14-1.4-0.14-1.68,0c-0.28,0.14-0.42,0.42-0.56,0.98
		l-0.84,6.17c1.68,0.28,2.8,0.14,3.51-0.42c0.7-0.42,1.26-1.54,1.82-2.95l0.7,0.14l-1.12,9.12l-0.7-0.14c0-1.54-0.28-2.66-0.84-3.37
		s-1.68-1.12-3.37-1.4l-0.84,6.45c0,0.56,0,0.98,0.28,1.26c0.28,0.28,0.98,0.42,1.96,0.56c1.82,0.28,3.51,0.14,4.77-0.42
		s2.52-1.68,3.65-3.37l0.84,0.14L87.98,429.85z"/>
	<path id="XMLID_34_" class="st0" d="M101.45,413.72c0-0.42,0.14-0.7,0.42-0.84c0.28-0.14,0.7-0.28,1.54-0.28
		c1.4,0,2.52,0.56,2.95,1.54c0.28,0.56,0.42,1.4,0.42,2.52c0,1.68-0.42,2.8-1.26,3.23c-0.84,0.42-2.24,0.7-4.21,0.7L101.45,413.72z
		 M103.83,429.85v-0.7c-0.98,0-1.68-0.28-2.1-0.56c-0.42-0.28-0.56-0.98-0.56-1.96v-5.33h0.84l6.03,8.56h6.03v-0.7
		c-0.28,0-0.56,0-0.7-0.14l-0.56-0.42l-5.89-7.71c0.98-0.14,1.96-0.56,2.95-1.12c1.12-0.84,1.82-1.96,1.82-3.51
		c0-1.96-1.12-3.37-3.51-4.21c-1.26-0.42-2.8-0.56-4.77-0.7l-9.54-0.14v0.7c0.98,0.14,1.68,0.28,1.96,0.42
		c0.42,0.28,0.7,0.98,0.56,2.1l-0.14,11.92c0,0.98-0.14,1.68-0.56,1.96c-0.42,0.28-1.12,0.42-2.1,0.42v0.7L103.83,429.85z"/>
	<path id="XMLID_35_" class="st0" d="M134.69,430.55l-17.39-0.42v-0.7c0.84,0,1.4-0.14,1.82-0.28c0.56-0.28,0.84-0.84,0.84-1.54
		l0.28-13.04c0-0.84-0.28-1.26-0.84-1.54c-0.28-0.14-0.98-0.28-1.82-0.42v-0.7l17.11,0.42l-0.14,5.47h-0.7
		c-0.28-1.68-0.98-2.95-1.82-3.65c-0.84-0.7-2.52-0.98-4.91-1.12c-0.98,0-1.54,0-1.68,0.28c-0.28,0.14-0.42,0.56-0.42,0.98
		l-0.14,6.17c1.68,0,2.8-0.14,3.51-0.7c0.56-0.56,1.12-1.54,1.4-3.09h0.7l-0.28,9.12h-0.84c-0.14-1.54-0.56-2.66-1.26-3.23
		c-0.7-0.7-1.82-0.98-3.51-0.98l-0.14,6.59c0,0.56,0.14,0.98,0.42,1.12c0.28,0.28,0.98,0.28,1.96,0.42c1.96,0,3.51-0.28,4.63-0.84
		c1.26-0.7,2.38-1.82,3.23-3.65h0.84L134.69,430.55z"/>
	<path id="XMLID_36_" class="st0" d="M148.15,431.67l0.28-0.56c0.98,0.56,1.82,0.7,2.24,0.56s0.84-0.56,1.12-1.26l5.75-11.5
		c0.28-0.7,0.42-1.26,0.14-1.54c-0.28-0.42-0.84-0.84-1.68-1.4l0.28-0.56l6.73,3.37l-0.42,13.74l0.28,0.14l10.8-8.56l6.73,3.37
		l-0.28,0.56c-0.98-0.42-1.68-0.56-2.1-0.42s-0.98,0.56-1.4,1.54l-5.33,10.66c-0.42,0.84-0.56,1.54-0.42,1.96
		c0.14,0.42,0.7,0.98,1.54,1.4l-0.28,0.56l-8.84-4.49l0.28-0.56c0.84,0.42,1.4,0.56,1.96,0.56c0.56,0,0.98-0.42,1.26-1.12
		l5.89-11.78l-0.14-0.14l-13.6,10.94l-0.7-0.42l0.42-17.25h-0.14l-5.47,10.94c-0.42,0.84-0.56,1.54-0.42,1.96
		c0.14,0.56,0.7,1.12,1.82,1.68l-0.28,0.56L148.15,431.67z"/>
	<path id="XMLID_37_" class="st0" d="M188.54,455.93l-13.88-10.52l0.42-0.56c0.7,0.56,1.26,0.7,1.68,0.84
		c0.56,0.14,1.12-0.14,1.68-0.7l7.85-10.38c0.42-0.7,0.56-1.26,0.28-1.82c-0.14-0.28-0.56-0.84-1.26-1.4l0.42-0.56l13.6,10.38
		l-3.23,4.35l-0.56-0.42c0.7-1.54,0.98-2.95,0.56-4.07c-0.28-1.12-1.4-2.24-3.37-3.79c-0.7-0.56-1.26-0.84-1.54-0.84
		c-0.28,0-0.56,0.14-0.98,0.56l-3.79,5.05c1.26,0.98,2.38,1.54,3.23,1.4c0.84-0.14,1.82-0.7,2.95-1.68l0.56,0.42l-5.47,7.29
		l-0.56-0.42c0.7-1.4,1.12-2.52,0.98-3.37s-0.84-1.82-2.24-2.8l-3.93,5.19c-0.42,0.42-0.42,0.84-0.28,1.26s0.56,0.84,1.4,1.54
		c1.54,1.12,2.95,1.82,4.35,1.96s2.95-0.14,4.77-1.12l0.7,0.56L188.54,455.93z"/>
	<path id="XMLID_38_" class="st0" d="M191.21,458.18l0.42-0.56c0.84,0.56,1.54,0.84,2.1,0.84c0.42-0.14,0.98-0.42,1.26-0.98
		l7.57-10.24c-0.14-1.26-0.28-2.1-0.42-2.24c-0.14-0.28-0.28-0.56-0.56-0.7l0.42-0.56l5.05,3.79l1.54,15.29l0.14,0.14l4.77-6.45
		c0.56-0.7,0.84-1.4,0.7-1.96c-0.14-0.56-0.56-1.12-1.4-1.82l0.42-0.56l5.19,3.79l-0.42,0.56c-0.84-0.42-1.4-0.7-1.82-0.7
		s-0.84,0.28-1.26,0.98l-9.4,12.76l-0.7-0.56l-2.1-19.49l-0.14-0.14l-6.31,8.56c-0.42,0.7-0.7,1.26-0.7,1.68c0,0.7,0.42,1.4,1.4,2.1
		l-0.42,0.56L191.21,458.18z"/>
	<path id="XMLID_39_" class="st0" d="M211.54,473.04l2.95-5.89l0.7,0.42c-0.42,1.96-0.42,3.65,0.14,5.05
		c0.56,1.26,1.4,2.24,2.66,2.95c1.26,0.56,2.24,0.84,2.95,0.42c0.84-0.28,1.26-0.7,1.68-1.4c0.28-0.7,0.42-1.4,0.14-2.24
		c-0.28-0.42-0.7-1.26-1.54-2.24l-1.4-1.68c-1.26-1.68-2.1-3.09-2.52-4.07c-0.28-1.12-0.14-2.24,0.42-3.37
		c0.56-1.12,1.68-2.1,3.09-2.52c1.4-0.56,3.09-0.28,5.05,0.7c0.98,0.56,1.82,1.12,2.66,1.82c0.84,0.7,1.26,1.12,1.4,1.26
		c0.28,0.14,0.56,0.14,0.7,0.14l0.56-0.42l0.84,0.42l-2.66,5.33l-0.7-0.42c0.28-1.4,0.14-2.8-0.28-4.07s-1.26-2.24-2.66-2.95
		c-0.84-0.42-1.68-0.56-2.52-0.42c-0.7,0.14-1.26,0.56-1.54,1.26c-0.42,0.7-0.42,1.4-0.14,2.1c0.28,0.7,1.12,1.68,2.38,3.37
		l1.54,1.82c0.7,0.84,1.12,1.68,1.4,2.38c0.56,1.4,0.42,2.8-0.14,4.07s-1.68,2.1-3.37,2.66c-1.54,0.56-3.65,0.28-5.89-0.98
		c-0.56-0.28-1.12-0.56-1.54-0.98c-0.56-0.42-0.98-0.84-1.4-1.26l-0.42-0.42l-0.28-0.28l-0.28-0.14c-0.28-0.14-0.56-0.14-0.7,0
		l-0.56,0.42L211.54,473.04z"/>
	<path id="XMLID_40_" class="st0" d="M262.87,482.16l-17.39-0.14v-0.7c0.84,0,1.4-0.14,1.82-0.28c0.56-0.28,0.84-0.84,0.84-1.54
		l0.14-13.04c0-0.84-0.28-1.4-0.84-1.54c-0.28-0.14-0.98-0.28-1.82-0.28v-0.7l17.11,0.14l-0.14,5.47h-0.7
		c-0.42-1.68-0.98-2.95-1.82-3.65s-2.52-0.98-4.91-0.98c-0.98,0-1.54,0-1.68,0.28c-0.28,0.14-0.42,0.56-0.42,0.98l-0.14,6.31
		c1.68,0,2.8-0.28,3.51-0.84c0.56-0.56,1.12-1.54,1.4-3.09h0.7l-0.14,9.12h-0.7c-0.14-1.54-0.56-2.66-1.26-3.23
		c-0.7-0.56-1.82-0.98-3.51-0.98l-0.14,6.59c0,0.56,0.14,0.98,0.42,1.12c0.28,0.28,0.98,0.28,1.96,0.28c1.96,0,3.51-0.28,4.63-0.98
		c1.26-0.7,2.24-1.96,3.23-3.79h0.84L262.87,482.16z"/>
	<path id="XMLID_43_" class="st0" d="M272.41,468.27h0.28l4.07,5.47l-5.61,1.26L272.41,468.27z M273.11,481.04l-0.14-0.7
		c-0.7,0.14-1.12,0.14-1.54,0.14c-0.56,0-0.98-0.28-0.98-0.7c-0.14-0.28,0-0.84,0-1.54c0-0.28,0.14-1.12,0.42-2.24l6.59-1.4
		l1.12,1.4c0.28,0.28,0.42,0.56,0.56,0.84c0.28,0.42,0.42,0.7,0.42,0.84c0.14,0.42,0,0.7-0.28,0.98c-0.28,0.14-0.84,0.42-1.82,0.7
		l0.14,0.7l9.4-2.1l-0.14-0.7c-0.7,0.14-1.26,0-1.68-0.28c-0.42-0.42-1.26-1.26-2.24-2.66l-9.54-12.48l-0.84,0.14l-3.37,15.85
		c-0.28,1.26-0.56,2.1-0.7,2.52c-0.28,0.7-0.84,0.98-1.54,1.26l0.14,0.7L273.11,481.04z"/>
	<path id="XMLID_46_" class="st0" d="M290.92,459.16c-0.28-0.56-0.28-0.84-0.28-1.12c0.14-0.42,0.42-0.7,1.26-0.98
		c2.1-0.98,4.07-0.7,5.89,0.98c1.12,0.98,2.1,2.38,2.8,4.07c1.26,2.95,1.68,5.19,1.12,6.59c-0.56,1.54-1.68,2.52-3.23,3.37
		c-0.56,0.28-0.98,0.28-1.26,0.14c-0.28-0.14-0.56-0.42-0.84-0.98L290.92,459.16z M299.2,472.76c3.09-1.4,5.19-3.37,6.17-5.89
		c0.98-2.24,0.84-4.49-0.14-6.73c-1.12-2.52-2.8-4.07-5.05-4.91c-2.52-0.84-5.33-0.56-8.7,0.98l-8.27,3.65l0.28,0.7
		c0.7-0.28,1.26-0.42,1.68-0.42c0.56,0,1.12,0.42,1.4,0.98l5.47,12.06c0.28,0.7,0.28,1.26-0.14,1.68c-0.28,0.28-0.7,0.56-1.4,0.98
		l0.28,0.56L299.2,472.76z"/>
	<path id="XMLID_47_" class="st0" d="M326.96,455.09l-14.31,9.96l-0.42-0.56c0.7-0.56,1.12-0.98,1.26-1.26
		c0.28-0.56,0.28-1.12-0.28-1.82l-7.43-10.66c-0.42-0.7-0.98-0.98-1.68-0.84c-0.42,0-0.84,0.28-1.68,0.84l-0.42-0.56l14.02-9.82
		l3.09,4.49l-0.56,0.42c-1.26-1.26-2.52-1.82-3.65-1.82s-2.66,0.7-4.63,2.1c-0.7,0.56-1.12,0.98-1.26,1.26
		c-0.14,0.28,0,0.56,0.28,0.98l3.65,5.05c1.4-0.98,2.24-1.82,2.38-2.66s-0.14-1.96-0.7-3.37l0.56-0.42l5.19,7.43l-0.56,0.42
		c-0.98-1.12-1.96-1.82-2.95-1.96c-0.84-0.14-2.1,0.28-3.37,1.26l3.79,5.33c0.28,0.42,0.7,0.7,1.12,0.7s0.98-0.28,1.82-0.84
		c1.54-1.12,2.66-2.24,3.23-3.51s0.7-2.95,0.42-4.91l0.7-0.42L326.96,455.09z"/>
	<path id="XMLID_48_" class="st0" d="M330.61,452.29l-0.42-0.56c0.84-0.7,1.4-1.26,1.4-1.82c0-0.42-0.14-0.98-0.56-1.54l-7.57-10.24
		c-0.42-0.56-0.84-0.84-1.4-0.84c-0.42,0-1.12,0.28-1.96,0.84l-0.42-0.56l6.03-4.49l12.2,6.59l0.14-0.14l-2.8-13.46l6.03-4.49
		l0.42,0.56c-0.7,0.7-1.26,1.26-1.4,1.68c-0.14,0.42,0.14,1.12,0.7,1.96l7.15,9.54c0.56,0.84,1.12,1.26,1.54,1.26
		s1.12-0.28,1.96-0.84l0.42,0.56l-7.99,5.89l-0.42-0.56c0.7-0.56,1.12-1.12,1.4-1.54c0.28-0.42,0.14-0.98-0.42-1.68l-7.85-10.52
		l-0.14,0.14l3.65,17.11l-0.7,0.42l-15.15-8.13l-0.14,0.14l7.29,9.82c0.56,0.7,1.12,1.12,1.68,1.26c0.56,0.14,1.26-0.14,2.38-0.84
		l0.42,0.56L330.61,452.29z"/>
	<path id="XMLID_49_" class="st0" d="M364.97,432.09v-0.7c1.12-0.14,1.82-0.28,2.1-0.7c0.28-0.42,0.42-0.98,0.42-1.68l-0.98-12.76
		c0-0.7-0.28-1.26-0.7-1.4c-0.42-0.14-1.12-0.28-2.1-0.28v-0.7l7.43-0.56l6.87,12.06h0.28l4.91-12.9l7.43-0.56v0.7
		c-0.98,0.14-1.68,0.42-1.96,0.7c-0.42,0.28-0.42,0.98-0.42,1.96l0.98,11.92c0,0.98,0.28,1.54,0.7,1.82
		c0.42,0.28,1.12,0.42,2.1,0.42v0.7l-9.82,0.7v-0.7c0.84-0.14,1.54-0.28,1.96-0.56s0.56-0.84,0.56-1.68l-0.98-13.18h-0.28
		l-6.03,16.41h-0.84l-8.56-14.87h-0.14l0.98,12.2c0.14,0.84,0.28,1.54,0.7,1.96c0.42,0.42,1.26,0.56,2.52,0.56v0.7L364.97,432.09z"
		/>
	<path id="XMLID_50_" class="st0" d="M394.7,412.03h10.1v0.7c-1.12,0-1.96,0.14-2.24,0.56c-0.42,0.28-0.56,0.98-0.56,1.96v8.98
		c0,1.4,0.14,2.38,0.56,3.23c0.7,1.4,1.96,2.1,3.79,2.1c2.24,0,3.79-0.84,4.63-2.38c0.42-0.84,0.7-1.96,0.7-3.51v-8.27
		c0-0.98-0.14-1.68-0.56-1.96c-0.42-0.42-1.12-0.56-2.38-0.7v-0.7h6.59v0.7c-0.98,0.14-1.54,0.42-1.82,0.56
		c-0.28,0.28-0.42,0.84-0.42,1.68v8.7c0,2.24-0.56,4.07-1.82,5.33c-1.26,1.26-3.09,1.82-5.75,1.82c-3.37,0-5.75-0.98-7.01-2.8
		c-0.7-0.98-0.98-2.24-0.98-3.79v-8.98c0-0.98-0.14-1.68-0.42-1.96c-0.28-0.28-0.98-0.42-1.96-0.56L394.7,412.03L394.7,412.03z"/>
	<path id="XMLID_51_" class="st0" d="M418.83,417.36l-0.28-5.47l17.95-1.12l0.28,5.47h-0.84c-0.42-1.96-1.26-3.23-2.66-3.79
		c-0.7-0.28-1.82-0.42-3.37-0.42l0.84,14.16c0,0.98,0.28,1.68,0.7,1.96c0.42,0.28,1.26,0.42,2.38,0.28v0.7l-10.66,0.56V429
		c1.12,0,1.96-0.28,2.24-0.56c0.42-0.42,0.56-0.98,0.42-1.96L425,412.32c-1.4,0.14-2.52,0.42-3.23,0.84c-1.4,0.84-2.1,2.1-2.1,4.07
		L418.83,417.36z"/>
	<path id="XMLID_54_" class="st0" d="M444.49,414.42h0.28l4.63,5.05l-5.47,1.68L444.49,414.42z M446.32,427.04l-0.28-0.7
		c-0.7,0.14-1.12,0.28-1.54,0.28c-0.56,0-0.98-0.14-1.12-0.56c-0.14-0.28-0.14-0.84-0.14-1.54c0-0.28,0.14-1.12,0.14-2.24l6.31-1.96
		l1.26,1.26c0.28,0.28,0.42,0.56,0.7,0.7c0.28,0.42,0.42,0.7,0.56,0.84c0.14,0.42,0.14,0.7-0.14,0.98
		c-0.28,0.28-0.84,0.42-1.82,0.84l0.28,0.7l9.12-2.95l-0.28-0.7c-0.7,0.28-1.26,0.14-1.68-0.14c-0.56-0.28-1.4-1.12-2.52-2.38
		l-10.66-11.5l-0.84,0.28l-1.82,16.13c-0.14,1.26-0.28,2.1-0.42,2.52c-0.28,0.56-0.7,1.12-1.4,1.4l0.14,0.7L446.32,427.04z"/>
	<path id="XMLID_55_" class="st0" d="M455.01,410.91l-2.95-4.63l15.01-9.82l3.09,4.49l-0.7,0.42c-1.26-1.4-2.66-2.1-4.21-1.96
		c-0.84,0.14-1.82,0.56-3.09,1.26l7.85,11.92c0.56,0.84,1.12,1.26,1.54,1.26c0.56,0.14,1.26-0.28,2.24-0.84l0.42,0.56l-8.84,5.89
		l-0.42-0.56c0.98-0.7,1.54-1.26,1.68-1.68s0-1.12-0.56-1.96l-7.85-11.92c-1.12,0.84-1.96,1.68-2.52,2.38
		c-0.84,1.4-0.7,2.95,0.14,4.63L455.01,410.91z"/>
	<path id="XMLID_58_" class="st0" d="M483.48,399.27c-1.26-0.42-2.8-1.12-4.49-2.38c-1.68-1.26-2.95-2.38-3.65-3.37
		c-1.54-2.1-1.54-4.07-0.28-5.89c0.98-1.26,2.24-1.96,4.07-1.82c1.68,0,3.79,0.98,6.17,2.66c1.68,1.26,2.95,2.38,3.79,3.51
		c1.54,2.1,1.54,4.07,0.28,5.89C487.83,399.41,485.86,399.97,483.48,399.27z M471.98,394.78c0.28,2.66,1.68,4.77,3.93,6.45
		c2.1,1.54,4.35,1.96,7.01,1.54c2.8-0.56,5.05-2.1,6.87-4.63c1.68-2.38,2.52-4.91,2.24-7.57c-0.28-2.66-1.54-4.91-3.93-6.59
		c-2.38-1.68-4.77-2.1-7.43-1.54c-2.52,0.56-4.77,2.1-6.45,4.63C472.4,389.45,471.7,392.12,471.98,394.78z"/>
	<path id="XMLID_59_" class="st4" d="M199.62,254.54c0,0-1.82-0.28-1.82-2.38c0-2.1,1.82-2.66,1.82-2.66h8.56v5.05L199.62,254.54
		L199.62,254.54z"/>
	<polygon id="XMLID_60_" class="st4" points="242.26,325.08 233.7,330.83 242.12,336.58 240.15,346.82 250.25,344.86 255.86,353.55 
		261.61,345 271.71,347.1 269.88,336.58 278.44,330.97 270.02,325.36 272.13,314.98 261.89,317.09 255.86,308.67 250.39,316.95 
		240.43,314.98 	"/>
	<polygon id="XMLID_61_" class="st4" points="149.69,264.78 141.14,270.53 149.55,276.42 147.59,286.51 157.69,284.55 163.3,293.25 
		169.05,284.69 179.14,286.79 177.32,276.42 185.88,270.67 177.32,265.06 179.57,254.82 169.33,256.78 163.3,248.37 157.83,256.78 
		147.73,254.68 	"/>
	<polygon id="XMLID_62_" class="st4" points="334.68,264.63 326.12,270.39 334.54,276.28 332.57,286.37 342.67,284.41 
		348.28,293.11 354.17,284.55 364.13,286.65 362.31,276.28 370.86,270.53 362.45,264.92 364.55,254.68 354.31,256.64 348.28,248.23 
		342.81,256.64 332.86,254.54 	"/>
	<path id="XMLID_63_" class="st0" d="M291.9,288.9v-46c0,0-8.7-2.1-12.34-1.96c-4.63,0-16.97,1.4-21.6,5.05c0,3.09,0,41.23,0,41.23
		s7.71-2.1,14.31-2.1C282.37,284.97,291.9,288.9,291.9,288.9z"/>
	<path id="XMLID_64_" class="st0" d="M300.46,293.11v-45.16c0,0-2.38-2.24-4.49-3.09c0,2.24,0,45.16,0,45.16
		S300.04,291.98,300.46,293.11z"/>
	<path id="XMLID_69_" class="st3" d="M280.68,277.26c-6.59-2.38-14.31,0.14-14.31,0.14l-0.7-1.96c0,0,8.56-2.66,15.71-0.14
		L280.68,277.26z M280.68,269.26c-6.59-2.1-14.31,0.56-14.45,0.56l-0.7-2.1c0,0,8.41-2.8,15.71-0.56L280.68,269.26z M280.68,261.83
		c-5.89-1.4-14.45,0.98-14.45,0.98l-0.7-2.1c0,0,9.12-2.52,15.57-0.98L280.68,261.83z M280.68,254.12c-5.89-1.4-14.45,1.4-14.45,1.4
		l-0.7-2.1c0,0,9.12-2.95,15.57-1.4L280.68,254.12z"/>
	<path id="XMLID_70_" class="st2" d="M216.73,365.47c-1.26,1.4-0.7,3.09-0.98,4.49c-0.28,1.4,1.12,4.91,3.37,6.59
		c2.24,1.68,7.01,0.84,4.91,1.54c-2.1,0.7-10.8,4.21-10.8,6.03c0,1.96,9.26-1.26,9.96-0.56s1.54,0.84-0.56,2.38
		c-2.1,1.4-15.99,3.65-15.85,7.01c0.14,3.23,0.7,11.36,2.38,11.22c5.33-10.52,25.67-16.55,21.6-13.74
		c-0.98,1.12-9.4,7.43-6.87,11.36c0.98,1.4,6.31,11.92,7.29,12.2c0.98,0.28-1.54-19.21,12.34-23.84c5.05-1.68-15.01,13.74,11.5,33.8
		c0-2.52,0-34.5,0-34.5c-3.79-5.47-9.96-11.22-12.76-13.32c-4.49-3.37-11.64-5.19-15.01-5.47
		C217.85,370.24,216.73,365.47,216.73,365.47z"/>
	<path id="XMLID_71_" class="st2" d="M147.87,64.36c0,0,4.91-3.79,7.43-5.33c2.24-1.4,6.59-4.63,8.56-6.17
		c1.26-0.98,6.87-5.47,5.33-5.47c0,0-7.43,0.28-9.96,2.66c-0.28-1.4,5.33-10.38,8.41-12.06c-0.98-1.26-1.4-1.82-3.79-1.68
		c-10.1,0.42-14.02,9.4-16.69,11.36c-1.4-0.42-2.95-8.7-3.09-9.68c-2.95,1.68-4.77,5.05-5.05,7.01c-0.28,1.68-0.56,10.8-0.7,13.04
		c-0.14,1.26,0.56,7.01-4.07,11.5c-1.68,1.68-2.8,1.12-3.37,0.98c-1.4-0.42-0.42-0.98,0.42-1.96c0.98-0.98,3.37-4.77,3.09-6.73
		s-1.96-6.87-8.41-7.71c-3.51-0.42-5.47-0.28-7.71,1.96c2.1,1.4,8.13,4.07,8.41,9.12c0.28,5.05-4.63,9.68-7.71,11.36
		s-9.12,2.8-13.74,2.8S97.52,78.95,95,77.41c-1.82-1.26-2.38-3.79-0.84-5.89c1.4-1.82,1.54-2.8,2.1-0.84
		c1.26,3.79,6.87,2.52,8.41,2.38c3.09-0.28,7.29-3.93,6.17-7.85c-0.7-2.38-1.68-6.17-10.38-6.17c-7.99,0-18.93,5.05-17.81,19.07
		c0.28,4.07,4.63,11.92,18.93,13.6c0,0,5.33,0.84,7.99,0.84c0,0,3.51,0.14,9.96-1.68c10.1-2.66,57.92-35.62,68.86-27.07
		c3.09,3.65,1.12,6.45,0.28,7.43c-0.42,0.42-0.98-3.23-4.21-3.93c-2.38-0.56-7.85,1.4-7.71,6.73c0.28,7.85,8.27,7.99,8.84,7.99
		c9.26,0.14,12.9-9.68,12.9-16.69s-3.93-14.59-13.74-14.59c-7.85,0-12.48,2.24-14.73,3.51c-2.66,1.54-14.45,7.85-18.37,9.82
		c-3.51,1.82-3.79,2.24-3.79,2.24C147.31,65.76,147.87,64.36,147.87,64.36z"/>
	<path id="XMLID_72_" class="st2" d="M61.62,273.05c0.56,0.98,1.96,2.1,2.8,2.66c0.84,0.56,13.04,5.47,14.45-12.2
		c0.42-6.31-5.33-24.54-6.45-30.01c-1.12-5.89-1.68-20.48,7.71-25.67c7.71-3.65,14.73,1.68,15.15,7.43s-2.8,7.01-4.77,7.57
		c-2.52,0.98-8.56-0.42-8.84-4.77c0,0-2.1,5.05,1.12,8.41c0.56,0.56,2.24,1.82,4.91,2.38c9.96,0.84,12.62-4.21,13.88-6.17
		c2.24-3.51,2.66-7.43,2.66-12.76c-0.14-7.01-5.61-16.13-15.85-16.13c-5.75,0.56-9.68,2.38-11.36,5.75
		c-1.96-3.09-2.24-5.33-0.7-7.99c1.4-2.66,4.07-5.33,9.4-6.31c-0.28-5.05-10.38-7.43-12.76-7.29c-3.65,0.28-3.65,0.56-6.73,1.68
		c-0.42-1.96-0.7-6.31,4.77-9.68c12.9-7.85,19.92,8.27,20.2,1.96c0.42-9.96,10.38-10.52,10.38-10.52s-1.4,8.41-0.84,9.54
		c0.7,2.95,7.43,8.98,9.68,15.71c2.1,6.73,1.68,10.52-0.28,15.71c0.28,2.24,0.7,2.24,0.7,2.24c2.38-2.95,4.07-7.71,4.77-12.34
		c0.7-4.63,2.52-13.04-2.38-31.28c-4.77-18.37-15.71-21.46-17.81-21.46c-3.09,0-5.33,1.12-6.45,2.38c-1.12,1.12-2.24,3.65-0.7,5.61
		c0.98,1.26,2.24,0.56,3.23-0.84c1.4-1.96,3.51-1.96,5.05-1.68c1.4,0.28,4.07,2.1,4.07,4.77c0,2.66-3.09,7.71-8.84,8.27
		c-5.75,0.42-10.66-3.93-11.36-5.33s-2.52-11.36-2.1-12.9c3.51-14.16,18.37-16.83,18.09-26.51c-0.14-5.47-1.12-5.61-1.68-8.84
		c-1.4-7.15,3.51-12.34,3.51-12.34c1.68,0.28,11.5,1.4,14.73,1.4c0,0,2.52,5.89,10.94,9.54c5.47,2.38,7.85,2.1,11.22,1.12
		c0.28,1.68-0.56,2.66-2.24,3.51c-4.07,2.24-3.37,3.65-3.37,4.49c0,0.7,6.03,4.49,6.03,13.6c-1.68-0.42-9.68-8.56-15.43-8.41
		c-1.4,1.26,0.42,2.8,1.26,4.49c0.7,1.68,1.96,4.77,1.96,7.71c-2.66-1.4-6.03-3.65-9.4-3.65c-3.37,0-8.41,3.09-8.41,4.77
		c3.93,3.37,19.49,11.08,23.56,26.79c4.07,15.71,2.38,36.88-1.26,46.98c-3.65,10.1-10.38,23.84-24.54,29.17
		c-4.91,1.68-8.27,1.12-9.12,0.98c-3.09-0.56-6.45-2.66-7.43-3.09c-0.7,0.98,0.98,5.19,3.79,10.1c1.82,3.23,5.19,8.56,13.46,9.4
		c5.89,0.14,8.84-7.29,4.07-8.84c0,2.24-0.56,3.09-2.38,4.07c-1.54,0.84-3.51-0.28-4.21-1.4c-0.7-1.12-0.7-4.49,1.12-6.03
		c1.4-1.12,2.24-2.24,6.17-1.96c3.79,0.28,9.54,7.71,5.05,14.73c-0.98,1.54-3.51,5.47-9.12,6.03c-4.07,0.28-10.94-2.38-13.6-4.77
		c-2.52-2.24-2.52-3.51-5.61-3.65c-1.68,1.96,5.61,7.99,7.01,8.84c5.75,3.65,8.27,4.21,14.31,5.89c6.59,1.82,7.01,5.05,8.98,9.54
		c-2.95,0-3.93,0.28-6.31,0.7c-2.24,0.42-3.37,1.68-3.65,2.38c-1.96,6.45,0.42,15.01,1.12,19.92c-0.98,2.24-10.38,5.89-12.9,1.26
		c2.66-3.51,5.75-9.12,3.51-16.55c-2.95-7.71-7.43-9.12-7.43-9.12s-2.24,5.19-4.77,7.57c-1.82,2.1-7.71,7.01-18.37,5.05
		c-4.35-0.7-8.98-4.63-10.94-8.27L61.62,273.05z"/>
	<path id="XMLID_73_" class="st2" d="M56.01,277.12c-0.7-0.98-1.4-3.37-1.54-4.91c-0.14-2.66,0.56-11.78,9.26-12.62
		c4.91-0.56,8.41,2.52,8.41,6.87s-4.49,5.47-7.01,4.77c-0.7-0.28-2.95-2.24-2.1-4.77c0.42-1.4-1.96,0.14-2.24,2.66
		c-0.14,1.68,0.14,2.52,0.7,3.93L56.01,277.12z"/>
	<path id="XMLID_74_" class="st2" d="M80.97,153.84c0,0-5.75-12.34-6.31-12.76c-1.68-4.07-3.51-6.03-2.8-9.82
		c0.7-3.65,4.07-5.19,6.03-7.29c-1.54-1.68-4.49-2.1-5.05-1.82c-0.7,0.28-7.71,1.82-5.61,12.62c-5.33-6.03-7.15-6.03-10.1-5.47
		c-0.98,0.14-4.77,0.42-7.43,4.77c3.65,0.84,9.4,2.52,9.4,4.63c-1.54,1.54-6.87,5.89-7.15,8.84c-0.56,4.77,1.68,6.17,3.09,6.73
		c1.12-6.03,3.79-8.7,6.73-9.12c2.52-0.28,5.75-0.42,9.96,1.96C76.62,149.77,80.97,153.84,80.97,153.84z"/>
	<path id="XMLID_75_" class="st2" d="M248.57,27.62c0,0,2.1-6.45,6.45-8.98c0,0,1.82,26.79-5.89,35.06s-15.57,9.12-19.63,10.1
		c-16.83,4.07-23.84,6.73-29.73,11.22c1.4-23-0.56-29.73,18.51-38.57c0.14,0.42-4.63,10.66-5.33,16.55
		c-0.28,2.24-0.28,2.24-0.28,2.24c0.7,0.56,2.24,0.28,2.95-0.7c0.56-0.98,9.82-14.45,15.57-15.29c0.42,0.42-2.38,3.23-3.37,5.61
		c-0.7,1.54-1.26,4.49-0.28,5.19c1.68,1.12,4.07,0.42,5.89-0.7c0.98-0.56,7.15-3.65,6.59-15.01c-0.28-0.84-1.12-4.07-5.33-4.91
		c0.84-2.38,3.09-3.23,5.61-2.52c2.8,0.84,5.33,3.51,6.73,3.79L248.57,27.62z"/>
	<path id="XMLID_76_" class="st2" d="M294.99,365.61c1.26,1.4,0.7,3.09,0.98,4.49s-1.12,4.91-3.37,6.59
		c-2.1,1.68-7.01,0.84-4.91,1.54c2.24,0.7,10.8,4.21,10.8,6.03c0,1.96-9.26-1.26-9.96-0.56c-0.7,0.7-1.54,0.84,0.56,2.38
		c2.1,1.4,15.99,3.65,15.85,7.01c-0.14,3.23-0.7,11.36-2.38,11.22c-5.33-10.52-25.67-16.55-21.6-13.74
		c1.12,1.12,9.4,7.57,6.87,11.36c-0.98,1.4-6.31,11.92-7.29,12.2s1.54-19.21-12.34-23.84c-5.05-1.68,15.01,13.74-11.5,33.8
		c0-2.52,0-34.5,0-34.5c3.79-5.47,9.96-11.22,12.76-13.32c4.49-3.37,11.64-5.19,15.01-5.33
		C293.87,370.24,294.99,365.61,294.99,365.61z"/>
	<path id="XMLID_77_" class="st2" d="M363.85,64.5c0,0-4.91-3.79-7.43-5.33c-2.24-1.4-6.59-4.63-8.56-6.17
		c-1.26-0.98-6.87-5.47-5.33-5.47c0,0,7.43,0.28,9.96,2.66c0.28-1.4-5.33-10.38-8.41-12.06c0.98-1.12,1.4-1.82,3.93-1.68
		c10.1,0.42,14.02,9.4,16.55,11.36c1.4-0.42,2.95-8.7,3.09-9.68c2.95,1.68,4.77,5.05,5.05,7.01c0.28,1.68,0.42,10.8,0.7,13.04
		c0.14,1.26-0.56,7.01,4.07,11.5c1.68,1.68,2.8,1.12,3.37,0.98c1.4-0.42,0.42-0.98-0.42-1.96c-0.98-0.98-3.37-4.77-3.09-6.73
		s1.96-6.87,8.41-7.71c3.51-0.42,5.47-0.28,7.71,1.96c-2.1,1.4-8.13,4.07-8.41,9.12c-0.28,5.05,4.63,9.68,7.71,11.36
		c3.09,1.68,9.12,2.8,13.74,2.8c4.77,0,7.85-0.42,10.24-1.96c1.82-1.26,2.38-3.79,0.84-5.89c-1.4-1.82-1.54-2.8-2.1-0.84
		c-1.26,3.79-6.87,2.52-8.41,2.38c-3.09-0.42-7.29-3.93-6.17-7.85c0.7-2.38,1.68-6.17,10.38-6.17c7.99,0,18.93,5.05,17.81,19.07
		c-0.28,4.07-4.63,11.92-18.93,13.6c0,0-5.33,0.84-7.99,0.84c0,0-3.51,0.14-9.96-1.68c-10.1-2.8-57.92-35.62-68.86-27.07
		c-3.23,3.65-1.12,6.45-0.28,7.43c0.42,0.42,0.98-3.23,4.21-3.93c2.38-0.56,7.85,1.4,7.71,6.73c-0.28,7.85-8.41,7.99-8.84,7.99
		c-9.26,0.14-12.9-9.68-12.9-16.69s3.93-14.59,13.74-14.59c7.85,0,12.62,2.24,14.73,3.51c2.66,1.4,14.45,7.85,18.23,9.82
		c3.51,1.82,3.79,2.24,3.79,2.24C364.41,65.91,363.85,64.5,363.85,64.5z"/>
	<path id="XMLID_78_" class="st2" d="M422.61,285.81c0,0,12.9,12.06,9.96,22.58c-0.28,0.84-2.1,8.27-12.34,10.52
		c-1.68-0.7-3.09-3.37-4.63-3.37c-3.09-0.28-10.38,12.06-12.06,14.45c-1.68,2.66-5.05,7.57-5.05,9.96s10.1-4.91,14.16-8.84
		c3.93-3.93,2.8-8.27,6.17-8.27c0.7,3.09,0.14,5.61,0.84,5.89s7.85-7.01,12.62-6.17c4.77,0.98,11.08,7.99,10.38,12.9
		c-1.54,1.12-9.12-3.09-11.08-3.37c-1.68-0.28-3.93,0.28-3.09,2.52c1.96,0.98,8.41,8.56,6.45,9.68c-1.96,1.12-2.52-2.8-16.41-2.66
		c-8.7,0.7-11.5,4.77-11.36,7.85c0,1.96,0.42,3.79,1.54,4.07c2.1,0.7,4.91,0.7,12.62-0.84c6.59-1.26,6.73-2.66,6.45,0.14
		c-0.14,1.54-5.75,3.65-5.75,6.31c0,2.66,14.16,6.17,3.51,20.62c-5.47,5.89-17.25,6.17-20.2,4.63c-0.7-1.4,8.41-5.75,7.29-11.5
		c-0.14-0.98-2.1-5.47-7.57-5.89c-3.37-0.28-0.42,6.45-7.43,7.01c0-8.98-4.63-8.56-4.63-8.56s-2.52-0.42-8.7,1.82
		c-4.49,1.68-7.99,2.38-9.4,5.47c-1.4,3.09-0.28,1.68,1.96,1.68s4.63-1.68,7.57-1.26c2.95,0.42,5.75,3.65,6.45,7.01
		c0.7,3.37,1.26,10.8-2.38,11.78c0,0-1.82-7.01-11.78-11.22c-2.95-1.26-7.15-1.12-11.78,0.56c-4.63,1.68-21.18,9.68-37.73,9.68
		c-16.55,0-27.77-12.2-29.87-16.83c-7.57-16.41,3.93-26.09,11.78-25.81c14.16,0.56,15.29,11.22,14.73,13.6
		c-0.56,2.52-1.54,8.13-8.13,6.87c-4.35-0.84-4.63-6.73-4.63-6.73c-3.93,0.7-3.93,4.63-3.79,5.61c0.98,5.89,7.57,7.57,11.22,8.13
		c2.66,0.42,7.43,0.56,10.66-0.14c0,0,22.44-2.52,36.46-11.5c17.25-10.94,21.88-19.21,28.19-32.96
		c8.27-16.97,11.92-38.71,11.92-38.71s8.13,6.59,7.71,6.73C423.6,297.03,422.61,285.81,422.61,285.81z"/>
	<path id="XMLID_79_" class="st2" d="M89.11,285.67c0,0-12.9,12.06-9.96,22.58c0.28,0.84,2.1,8.27,12.34,10.52
		c1.68-0.7,3.09-3.37,4.63-3.37c3.09-0.28,10.38,12.06,12.06,14.45c1.68,2.66,5.05,7.57,5.05,9.96s-10.1-4.91-14.16-8.84
		c-3.93-3.93-2.8-8.27-6.17-8.27c-0.7,3.09-0.14,5.61-0.84,5.89c-0.7,0.28-7.85-7.01-12.62-6.17c-4.77,0.98-11.08,8.13-10.38,12.9
		c1.54,1.12,9.12-3.09,11.08-3.37c1.68-0.28,3.93,0.28,3.09,2.52c-1.96,0.98-8.41,8.56-6.45,9.68c1.96,1.12,2.52-2.8,16.41-2.66
		c8.7,0.7,11.5,4.63,11.36,7.85c0,1.96-0.42,3.79-1.54,4.07c-2.1,0.7-4.91,0.7-12.62-0.84c-6.59-1.26-6.73-2.8-6.45,0.14
		c0.14,1.54,5.75,3.65,5.75,6.31c0,2.66-14.16,6.17-3.51,20.62c5.47,5.89,17.25,6.17,20.2,4.63c0.7-1.4-8.41-5.75-7.29-11.5
		c0.14-0.98,2.1-5.47,7.57-5.89c3.37-0.28,0.42,6.45,7.43,7.01c0-8.98,4.63-8.56,4.63-8.56s2.52-0.42,8.7,1.82
		c4.49,1.68,7.99,2.38,9.4,5.61c1.4,3.09,0.28,1.68-1.96,1.68c-2.1,0-4.63-1.68-7.57-1.26c-2.95,0.42-5.75,3.65-6.45,7.01
		s-1.26,10.8,2.38,11.78c0,0,1.82-7.01,11.78-11.22c2.95-1.26,7.15-1.12,11.78,0.56c4.63,1.68,21.18,9.68,37.73,9.68
		s27.77-12.2,29.87-16.83c7.57-16.41-3.79-26.09-11.78-25.81c-14.16,0.56-15.29,11.22-14.73,13.6c0.56,2.52,1.54,8.13,8.13,6.87
		c4.35-0.84,4.63-6.73,4.63-6.73c3.93,0.7,3.93,4.63,3.79,5.61c-0.98,5.89-7.57,7.57-11.22,8.13c-2.66,0.42-7.43,0.56-10.66-0.14
		c0,0-22.44-2.52-36.46-11.5c-17.25-10.94-21.88-19.21-28.19-32.96c-8.27-16.97-11.92-38.71-11.92-38.71s-8.13,6.59-7.71,6.73
		C88.12,297.03,89.11,285.67,89.11,285.67z"/>
	<path id="XMLID_80_" class="st2" d="M263.15,27.76c0,0-1.96-6.73-6.31-9.12c0,0-2.1,26.79,5.75,35.2
		c7.71,8.27,15.57,9.12,19.63,10.1c16.83,4.07,23.84,6.73,29.73,11.22c-1.4-23,0.56-29.73-18.51-38.57
		c-0.14,0.42,4.63,10.66,5.33,16.55c0.28,2.24,0.28,2.24,0.28,2.24c-0.7,0.56-2.24,0.28-2.95-0.7c-0.56-0.98-9.82-14.45-15.57-15.29
		c-0.42,0.42,2.38,3.23,3.37,5.61c0.7,1.54,1.26,4.49,0.28,5.19c-1.68,1.12-4.07,0.42-5.89-0.7c-0.98-0.56-7.15-3.65-6.59-15.15
		c0.28-0.84,1.12-4.21,5.33-4.91c-0.84-2.38-3.09-3.23-5.61-2.52c-2.8,0.84-5.33,3.51-6.73,3.79L263.15,27.76z"/>
	<path id="XMLID_81_" class="st4" d="M187.14,146.97c1.26,0.42,4.63,3.37,5.33,4.35c3.23-0.84,31.13-14.45,33.1-16.83
		c1.54-2.38,1.68-4.77,2.38-4.35c4.35,2.38,6.31-0.84,9.4-3.93c4.07-4.07,7.43-7.43,7.85-8.13c5.61,0,62.69,0,62.69,0
		s13.32,0.42,14.31-4.77c0.56-5.05-6.03-5.89-11.36-5.89c-5.33,0-20.06,1.96-25.67,3.79c-5.05,1.26-9.96,3.79-15.99,3.79
		c-6.03,0-16.13-1.82-17.11-8.56c-1.12-6.73,3.23-9.26,8.98-10.8c5.89-1.54,4.77,0,3.65-1.12c-1.12-1.12-0.84-0.98-0.84-2.38
		c0.28-5.19,7.29-8.27,9.4-8.27s-5.05,6.31-2.8,10.38c0.56,0.98,0.84-6.45,16.13-5.75c2.1,0.14-13.04,9.68-11.36,9.4
		c8.98-1.54,9.26,3.09,2.1,5.61c-1.26,0.42-10.38,1.68-8.84,0.98c1.96-0.84,3.93-2.38,4.07-4.07c0.28-2.95-6.03-1.82-7.29-1.54
		c-1.4,0.28-6.87,1.4-7.01,5.75c0.14,2.66,3.37,4.49,7.85,4.91c8.98-0.28,10.94-1.68,14.16-2.66c3.79-1.12,18.23-5.75,29.03-5.89
		c10.94-0.28,17.95,1.82,20.76,5.61c4.35,5.89,3.09,10.52,1.12,12.9c-1.82,2.38-9.54,4.07-9.54,4.07c0,3.09,1.54,5.19,2.95,6.31
		s7.71,3.37,9.4,3.37c1.54,0,7.15-0.42,7.15,0.42c0,0.84-2.38,3.09-5.89,5.05c-0.98,0.56-2.8,7.01-2.8,7.01l3.51,5.05
		c0,0-14.87,6.73-7.85,7.85c5.89,0.98,5.61,4.21,5.61,5.75c-0.14,1.26-2.38,3.23-3.93,3.23c-1.54,0-5.33-1.54-5.89-2.38
		c-1.82,2.1-3.51,5.61-6.31,5.47c-2.66,0-6.59-2.8-6.73-5.47c0-2.1,2.38-4.77,4.35-5.47c-0.84-0.84-8.84-0.14-4.77-6.31
		c1.68-2.52,5.89-1.26,7.43,0.84c1.26,1.82,2.8-4.63,2.8-4.63l1.82-7.01c0,0-11.5,0.42-13.32,0c-1.82-0.42-6.03-0.98-10.52-6.59
		s-4.35-6.45-7.85-6.31c-3.51,0.28-12.06,2.1-20.06,9.4c-5.75,8.27-16.83,5.89-21.46,3.23c-3.51-1.96-2.38,0.28-3.23-1.26
		c-0.84-1.54-2.1-5.61-3.23-5.61c-1.12,0-1.82,1.54-1.54,2.66c0.28,1.12,1.54,2.95,1.26,4.21c-0.28,1.26,0.28,3.51-1.82,4.49
		c-2.1,0.84-1.82,7.29-3.65,7.29c-1.82,0-7.29-4.21-10.24-3.93s-7.43,1.54-8.98,4.35c-4.49,0-13.74-0.84-12.9,5.89
		c-5.47-2.66-8.13-3.37-9.26-0.42c-1.12,3.09,2.95,7.01-3.65,7.85c-1.82,0.28-3.93-1.68-4.21-2.66c-0.7-1.96,0.42-4.21-0.84-3.65
		c-5.19,2.38-8.27,1.54-8.27,1.54c-2.38,0.28-7.43-5.89,0-7.85c3.23-0.84,5.05-0.84,5.05-0.84s-4.07-1.82-3.51-4.63
		C181.53,144.02,187.14,146.97,187.14,146.97z"/>
	<path id="XMLID_82_" class="st4" d="M206.35,129.72l7.01,5.75l-15.71,8.56c0,0,0.56-1.26-4.63-5.05
		c-4.21-2.95-12.34-2.95-12.34-2.95s6.17-2.66,4.63-3.37c-2.52-1.12-5.47-4.07-5.61-2.66c0-0.28-8.41,9.68-10.94-1.12
		c-1.4-5.47,6.03-4.35,7.01-5.19c-0.56-1.96-3.51,1.26-5.89-3.37c-2.8-5.75,3.09-8.56,6.31-8.27c4.35,0.56,3.51,5.61,4.63,6.31
		c0.98,0.7,0.28-2.95,3.65-3.37c2.1,0,2.95,0.56,4.07,1.68c0.14,0.14,0.42,0.42,0.56,0.7c1.12,1.54,0.84,2.38,0.28,4.49
		c-0.56,2.24-2.1,1.68-1.82,2.38c0.28,0.7,2.95,3.51,4.49,4.35c1.54,0.84,8.13,3.09,8.13,3.09L206.35,129.72z"/>
	<path id="XMLID_83_" class="st4" d="M285.87,135.89c1.4,0,5.05-0.84,5.05-0.84s3.09,5.05,7.01,7.01c0.84,0.42-2.38,4.63,1.54,7.43
		c0.84,0.56-6.31-0.7-8.7,0.42c-3.37,1.54-5.47,5.75-9.4,8.27c-5.33,3.37,0.84,7.57-0.84,7.85s-6.87-2.95-7.71-2.95
		c-0.98,0-4.77,1.26-4.77,2.95s3.09,5.89-2.38,7.29c-2.8,0.7-5.33-0.84-5.47-4.21c-2.24-0.42-3.51,1.54-3.51,1.54
		c-2.1,2.38-5.61,1.82-6.45-2.1c-0.28-0.98-0.84-5.47,5.75-5.75c1.96-0.14,1.96,0.7,2.38,0s-4.49-2.38-3.79-4.07
		s1.54-5.05,6.45-2.95c2.66,1.12,3.23,1.82,3.65,2.24c0.56,0.42,15.43-10.66,15.43-10.66s-1.54-0.98-3.51-1.54
		c-1.82-0.56-4.49,0.7-4.35-1.12C272.41,142.62,284.47,135.89,285.87,135.89z"/>
	<path id="XMLID_84_" class="st4" d="M217.57,122.42c0.42,0.84,5.05,3.23,7.43,2.52c0.7-0.14-0.56,6.87-7.85,6.59
		c-7.43-0.28-8.27-8.27-7.29-7.43C211.4,125.37,217.57,122.42,217.57,122.42z"/>
	<path id="XMLID_85_" class="st4" d="M203.55,121.16c2.1,1.82,4.21,2.95,4.07,2.52c0.14,1.12-1.54,3.37-2.95,3.79
		c-1.54,0.42-3.51-0.98-3.51-2.66C201.16,123.13,203.55,121.16,203.55,121.16z"/>
	<path id="XMLID_86_" class="st4" d="M230.76,121.58c-2.1,1.82-4.21,2.95-4.07,2.52c-0.14,1.12,1.54,3.37,2.95,3.79
		c1.4,0.42,3.51-0.98,3.51-2.66C233.14,123.55,230.76,121.58,230.76,121.58z"/>
	<path id="XMLID_87_" class="st4" d="M194.85,107.28c-0.14,2.8,0.42,5.05,0.7,4.77c-0.7,0.7-3.51,0.98-4.91,0.14
		c-1.26-0.84-1.54-3.37-0.28-4.49C191.91,106.72,194.85,107.28,194.85,107.28z"/>
	<path id="XMLID_88_" class="st4" d="M240.99,107.28c0.14,2.8-0.42,5.05-0.7,4.77c0.7,0.7,3.51,0.98,4.91,0.14
		c1.26-0.84,1.54-3.37,0.28-4.49C244.08,106.72,240.99,107.28,240.99,107.28z"/>
	<path id="XMLID_89_" class="st4" d="M199.62,263.23c0,0-1.82-0.28-1.82-2.38c0-2.1,1.82-2.66,1.82-2.66h8.56v5.19L199.62,263.23z"
		/>
	<path id="XMLID_90_" class="st4" d="M199.62,272.35c0,0-1.82-0.28-1.82-2.38s1.82-2.66,1.82-2.66h8.56v5.19L199.62,272.35z"/>
	<path id="XMLID_91_" class="st4" d="M199.62,281.04c0,0-1.82-0.28-1.82-2.38s1.82-2.8,1.82-2.8h8.56v5.19H199.62z"/>
	<path id="XMLID_92_" class="st4" d="M199.62,290.02c0,0-1.82-0.28-1.82-2.38s1.82-2.66,1.82-2.66h8.56v5.19L199.62,290.02z"/>
	<path id="XMLID_93_" class="st4" d="M217.29,114.57L217.29,114.57L217.29,114.57L217.29,114.57h0.14l0,0h0.14l0,0h0.14l0,0h0.14
		l0,0c1.96-0.14,3.79-0.56,4.35-0.98c1.4-1.4,1.12-3.23,1.12-4.77c0-1.82-0.7-4.21-0.7-4.21c1.54-0.7,7.01-1.68,8.7-2.52
		c2.38-1.12,1.4,3.93,1.4,3.93c-1.54,0.84-7.01,1.96-7.01,1.96c0,0.84,0.14,2.38,0,6.17c0,1.12-1.68,2.38-2.95,3.23
		c-1.12,0.84-4.63,0.56-4.63,0.56s1.12,3.09,5.19,2.66c1.82-0.14,5.33-0.14,7.29-1.96c1.26-1.12,1.96-2.24,1.96-2.24
		c0.98,0.7,1.26,1.68,2.52,2.66c1.82,1.12,1.96,0.98,4.07,0.42c0.98-0.28,1.82-3.09,0.56-4.21c-1.26-1.12-0.84-0.98-2.24-1.68
		c-1.26-0.7-1.4-0.98-1.12-1.68c0.28-0.7,1.12-1.68,1.4-2.24c0.56-1.82-0.56-5.05,1.12-5.05c5.89,0.14,6.17-7.43,2.24-8.27
		c-6.31-1.12-5.61,3.65-6.59,2.95c-0.98-0.7,3.65-4.91-1.4-8.13c-3.23-1.96-7.15-0.42-7.15-0.42s-0.56-0.14-2.8,3.37
		c-0.84,1.12-0.28-3.79-2.38-5.05c-1.12-0.7-2.24-0.98-3.23-1.12l0,0l0,0l0,0l0,0c-0.98,0.14-2.1,0.56-3.23,1.12
		c-2.1,1.26-1.68,6.17-2.38,5.05c-2.24-3.37-2.8-3.37-2.8-3.37s-3.93-1.54-7.29,0.42c-5.19,3.23-0.42,7.57-1.4,8.13
		c-0.98,0.7-0.28-4.21-6.59-2.95c-3.93,0.7-3.65,8.27,2.24,8.27c1.54,0,0.42,3.23,1.12,5.05c0.14,0.56,0.98,1.68,1.4,2.24
		c0.28,0.7,0.28,0.98-0.98,1.68c-1.26,0.7-0.98,0.56-2.24,1.68c-1.26,1.12-0.28,3.93,0.56,4.21c2.1,0.56,2.24,0.7,4.07-0.42
		c1.4-0.84,1.68-1.96,2.52-2.66c0,0,0.7,1.12,1.96,2.24c2.1,1.68,5.61,1.68,7.29,1.96c4.07,0.42,5.19-2.66,5.19-2.66
		s-3.65,0.14-4.63-0.56c-1.26-0.84-2.95-2.1-2.95-3.23c-0.14-3.79,0-5.33,0-6.17c0,0-5.33-1.12-7.01-1.96c0,0-0.98-5.19,1.4-3.93
		c1.68,0.84,7.15,1.82,8.7,2.52c0,0-0.56,2.52-0.7,4.21c0,1.54-0.28,3.23,1.12,4.77C213.36,114.01,215.19,114.43,217.29,114.57z"/>
</g>
</svg>
