<?xml version="1.0" standalone="no"?>
<!DOCTYPE svg PUBLIC "-//W3C//DTD SVG 20010904//EN"
 "http://www.w3.org/TR/2001/REC-SVG-20010904/DTD/svg10.dtd">
<svg version="1.0" xmlns="http://www.w3.org/2000/svg"
 width="1023.000000pt" height="1162.000000pt" viewBox="0 0 1023.000000 1162.000000"
 preserveAspectRatio="xMidYMid meet">

<g transform="translate(0.000000,1162.000000) scale(0.100000,-0.100000)"
fill="#000000" stroke="none">
<path d="M1660 7710 l0 -3300 1503 0 c1635 0 1554 3 1672 -55 95 -46 195 -147
247 -248 10 -21 28 -71 38 -110 13 -53 19 -63 19 -40 1 18 12 61 25 97 58 161
168 268 341 332 48 18 117 19 1575 24 l1525 5 3 3298 2 3297 -1457 -2 -1458
-3 -65 -23 c-173 -63 -310 -171 -397 -313 -32 -51 -72 -157 -87 -229 -12 -58
-14 -62 -20 -35 -38 172 -91 279 -190 383 -81 86 -181 150 -291 189 l-80 28
-1452 3 -1453 2 0 -3300z m3101 2933 c117 -40 230 -129 293 -231 15 -24 40
-82 56 -130 18 -54 29 -77 29 -60 1 46 49 157 95 222 53 74 110 123 191 163
123 61 39 58 1495 58 l1335 0 0 -2953 0 -2952 -1205 0 c-792 0 -1234 -4 -1290
-11 -100 -12 -200 -45 -278 -91 -73 -43 -208 -178 -250 -250 -40 -67 -79 -175
-90 -249 l-9 -54 -7 40 c-52 291 -237 501 -518 587 l-73 23 -1267 3 -1268 3 0
2948 c0 1621 3 2951 7 2955 4 3 610 5 1347 4 l1341 -3 66 -22z"/>
<path d="M5407 10309 c-94 -22 -191 -98 -235 -186 -22 -43 -42 -127 -42 -177
0 -72 -161 -254 -321 -362 -54 -36 -99 -72 -99 -79 0 -8 31 -14 101 -19 116
-8 192 -20 267 -43 76 -24 72 -48 -18 -91 -74 -35 -226 -147 -275 -203 -63
-72 -66 -63 38 -112 104 -49 187 -102 260 -167 60 -53 62 -80 9 -144 -47 -57
-122 -181 -161 -268 l-29 -65 114 -107 c84 -79 114 -102 114 -88 0 12 37 55
97 110 l97 89 -18 46 c-20 54 -104 196 -147 250 -18 22 -29 46 -27 59 3 19 8
15 42 -27 52 -63 126 -187 161 -268 l27 -66 -116 -112 -116 -111 0 -723 0
-723 -62 -64 c-35 -35 -87 -85 -116 -110 l-53 -47 45 -93 c68 -143 186 -310
186 -266 0 9 25 51 55 93 52 73 135 225 135 249 0 6 -43 54 -95 105 -54 54
-95 103 -95 114 0 14 33 -12 113 -88 61 -59 113 -111 115 -116 10 -24 -118
-252 -193 -345 -18 -22 -35 -53 -37 -69 -5 -44 -146 -153 -286 -222 l-114 -56
79 -79 c79 -80 203 -170 280 -203 26 -12 43 -26 45 -38 2 -13 17 -25 43 -34
61 -21 200 -43 274 -43 76 0 111 -8 111 -24 0 -6 -42 -38 -92 -71 -107 -69
-238 -194 -294 -279 l-39 -59 -6 35 c-11 68 -176 244 -306 326 -24 15 -43 30
-43 33 0 3 27 7 60 8 70 2 202 24 243 40 16 6 32 11 37 11 6 0 11 -87 12 -197
l3 -198 31 45 c47 67 175 188 254 242 l70 47 -48 5 c-206 25 -312 49 -312 72
0 18 0 18 -89 -6 -64 -17 -240 -40 -308 -40 -39 0 -26 -27 30 -60 132 -81 253
-193 327 -304 l40 -58 1 -337 c1 -312 2 -331 15 -267 66 334 287 584 614 693
l85 28 1033 3 1032 3 0 2609 0 2610 -1232 -1 c-678 -1 -1250 -5 -1271 -10z
m-203 -492 c67 -88 177 -187 284 -254 39 -25 72 -50 72 -57 0 -8 -44 -16 -132
-23 -73 -7 -167 -21 -208 -32 -90 -25 -90 -25 -90 -6 0 18 -80 43 -185 56 -44
6 -100 13 -124 17 l-43 7 73 50 c136 93 279 252 279 311 0 16 4 24 8 19 4 -6
34 -45 66 -88z m1170 -309 c11 -121 44 -236 106 -366 42 -87 56 -124 47 -128
-7 -2 -60 18 -118 45 -111 53 -215 91 -249 91 -11 0 -57 34 -106 80 -47 43
-126 105 -175 137 -49 31 -89 62 -89 69 0 16 34 24 113 24 91 0 253 34 347 72
41 17 79 35 85 39 23 22 32 6 39 -63z m-630 -94 c169 -97 307 -208 292 -233
-4 -6 -35 -11 -70 -11 -79 0 -224 -25 -321 -55 l-75 -23 -37 45 c-51 62 -176
168 -250 211 -81 48 -82 67 -5 83 70 15 190 26 301 28 83 1 85 0 165 -45z
m-489 -86 c82 -49 293 -233 281 -246 -3 -2 -39 -19 -80 -37 -87 -38 -226 -128
-276 -180 -39 -40 -50 -43 -50 -16 0 34 -125 130 -263 202 l-88 45 58 57 c75
73 150 128 229 169 35 18 64 39 64 46 0 23 37 12 125 -40z m868 -230 c64 -76
150 -276 173 -402 l7 -39 -51 7 c-91 12 -274 7 -350 -9 -77 -16 -92 -14 -92
11 0 54 -105 262 -178 352 -41 52 -42 51 72 81 113 31 196 40 301 36 88 -4 91
-5 118 -37z m149 -14 c84 -30 163 -69 261 -127 60 -35 74 -49 113 -116 89
-151 158 -321 138 -340 -5 -6 -48 10 -109 40 -55 27 -143 60 -195 74 -52 14
-106 29 -119 33 -20 6 -27 20 -47 102 -24 101 -69 217 -110 288 -22 37 -27 72
-10 72 3 0 38 -12 78 -26z m-652 -101 c61 -83 109 -174 144 -271 26 -73 26
-92 2 -92 -25 0 -223 -103 -297 -155 l-76 -53 -56 111 c-31 62 -84 148 -117
192 -33 44 -60 83 -60 87 0 14 135 119 204 160 70 41 171 87 194 88 6 0 35
-30 62 -67z m1178 -177 c141 -70 259 -105 415 -121 32 -4 57 -10 55 -13 -83
-159 -128 -337 -128 -508 0 -83 -19 -76 -91 34 -35 53 -96 130 -136 172 -40
41 -73 81 -73 87 0 32 -64 207 -105 287 -39 76 -47 106 -29 106 2 0 44 -20 92
-44z m-1670 -460 l-3 -123 -94 88 -93 89 36 77 c21 43 63 116 94 163 l57 85 3
-127 c1 -71 1 -184 0 -252z m1172 278 c33 -33 36 -302 7 -424 -11 -44 -18 -55
-33 -53 -213 24 -284 25 -400 7 l-32 -5 5 144 c4 89 1 175 -6 226 -7 46 -10
85 -8 87 2 3 33 11 68 19 76 17 382 16 399 -1z m242 -60 c99 -35 203 -91 246
-131 l35 -33 -6 -142 c-4 -112 -11 -164 -31 -237 -14 -51 -29 -97 -31 -102 -3
-4 -31 11 -63 35 -77 59 -176 112 -280 151 -58 22 -86 37 -83 46 28 111 39
300 22 404 -5 28 -7 53 -5 56 5 9 110 -16 196 -47z m-738 -1 c22 -103 17 -411
-7 -418 -7 -1 -73 -17 -147 -35 -74 -17 -140 -34 -146 -36 -6 -3 -20 31 -34
83 -13 48 -33 118 -46 156 l-23 67 72 51 c76 54 280 159 308 159 10 0 19 -11
23 -27z m1123 -256 c45 -49 101 -129 168 -242 l47 -80 -5 -165 c-10 -259 -38
-345 -85 -253 -33 64 -108 159 -192 243 l-80 80 24 84 c32 109 45 182 50 286
3 47 5 86 5 88 4 13 36 -6 68 -41z m-664 -192 c22 -9 18 -23 -34 -135 -39 -81
-139 -243 -159 -255 -5 -3 -51 7 -102 23 -51 17 -119 36 -150 43 -32 6 -58 17
-58 22 0 5 9 40 19 76 11 36 27 103 37 148 17 79 18 82 48 86 50 8 379 1 399
-8z m129 -36 c33 -11 88 -34 122 -51 65 -33 197 -121 217 -144 24 -30 -130
-302 -219 -387 l-30 -29 -54 44 c-67 55 -151 106 -251 154 -42 20 -77 38 -77
40 0 2 25 40 55 84 58 85 110 182 140 263 10 26 22 47 27 47 5 0 36 -9 70 -21z
m870 -297 c74 -114 150 -197 246 -269 42 -32 78 -62 80 -66 2 -5 -28 -30 -66
-57 -87 -61 -193 -176 -263 -285 -75 -117 -84 -114 -92 33 -4 72 -15 153 -30
212 l-24 95 24 95 c15 59 26 140 30 213 8 147 16 150 95 29z m-405 -14 c80
-83 161 -196 197 -275 18 -40 18 -45 2 -86 -26 -70 -111 -190 -198 -282 -44
-47 -83 -85 -87 -85 -4 0 -18 26 -31 58 -35 87 -95 186 -167 274 l-64 80 50
53 c64 68 118 151 166 259 22 47 42 86 45 86 4 0 43 -37 87 -82z m-665 -143
c84 -42 224 -133 251 -163 18 -19 17 -21 -40 -64 -101 -77 -288 -179 -325
-177 -7 0 -38 30 -68 66 -30 36 -76 84 -102 106 -27 22 -48 44 -48 50 0 5 48
60 108 122 121 126 101 121 224 60z m340 -252 c70 -76 141 -189 182 -293 10
-25 20 -50 23 -56 5 -13 -105 -97 -188 -143 -52 -29 -208 -91 -229 -91 -4 0
-14 17 -21 38 -20 63 -89 193 -145 275 -30 43 -54 80 -54 81 0 2 51 28 113 59
61 31 146 83 187 116 41 33 78 60 81 60 4 1 26 -20 51 -46z m586 -73 c7 -30
16 -130 19 -221 l6 -167 -53 -92 c-54 -95 -152 -232 -188 -264 -35 -31 -44
-17 -48 74 -5 103 -18 175 -50 287 l-25 85 89 89 c48 49 115 129 147 179 37
56 66 89 75 88 9 -2 20 -25 28 -58z m-997 -202 c48 -69 159 -280 159 -304 0
-7 -10 -15 -22 -18 -39 -12 -270 -19 -350 -12 l-76 8 -7 36 c-3 20 -19 90 -36
156 -17 65 -29 119 -27 120 2 2 39 12 83 24 44 12 105 30 135 41 30 11 63 20
72 20 11 1 38 -28 69 -71z m640 -145 c34 -88 51 -187 56 -324 l6 -147 -49 -36
c-94 -69 -284 -148 -390 -163 l-41 -5 9 63 c12 81 3 286 -15 361 l-14 57 56
17 c82 23 227 97 301 153 36 27 66 50 68 50 1 1 7 -11 13 -26z m-1131 -168
c52 -13 113 -27 135 -32 40 -9 40 -9 48 -68 9 -61 2 -308 -9 -357 -4 -16 -13
-28 -21 -28 -29 0 -188 81 -284 145 l-98 65 23 68 c13 37 33 107 46 155 21 80
25 88 44 82 12 -3 64 -16 116 -30z m1512 -101 c12 -168 42 -293 99 -408 16
-33 29 -60 29 -61 0 -2 -30 -6 -67 -10 -153 -16 -256 -46 -402 -119 -56 -29
-97 -44 -103 -38 -5 5 13 54 46 123 31 63 66 152 80 199 22 79 29 91 89 151
35 37 94 112 132 168 37 56 73 100 79 98 6 -2 14 -44 18 -103z m-834 6 c15
-62 21 -301 9 -372 -5 -29 -14 -49 -25 -53 -9 -4 -74 -9 -143 -12 -96 -4 -150
-2 -223 12 l-97 17 8 57 c4 31 8 133 8 226 l-1 171 156 -4 c85 -2 180 1 210 6
81 14 83 13 98 -48z m-1178 -267 l-1 -248 -30 35 c-35 41 -109 165 -139 233
l-21 48 93 89 c51 49 94 89 96 90 1 0 2 -111 2 -247z m515 -98 c50 -23 102
-47 117 -53 27 -11 27 -12 14 -54 -24 -77 -57 -152 -94 -213 -50 -84 -112
-165 -126 -165 -6 0 -61 24 -121 54 -103 51 -275 174 -275 197 0 5 22 37 48
72 66 85 105 149 147 240 l36 77 82 -57 c45 -31 123 -75 172 -98z m1141 60
c12 -30 -67 -215 -152 -357 -31 -51 -44 -62 -143 -117 -107 -60 -178 -92 -259
-117 -60 -19 -62 -5 -12 92 42 82 95 233 106 304 4 22 10 43 14 45 5 3 51 16
104 30 96 25 252 87 296 118 30 21 39 21 46 2z m-841 -156 c43 -7 126 -9 213
-6 l144 5 -7 -36 c-23 -123 -111 -327 -174 -402 l-29 -35 -118 1 c-117 2 -216
17 -319 51 -27 8 -51 17 -53 18 -2 1 22 37 52 79 67 94 128 220 162 335 3 9
13 11 32 7 15 -3 59 -11 97 -17z m-754 -213 c69 -62 145 -111 256 -163 l95
-45 -73 -75 c-78 -78 -179 -153 -266 -197 -58 -29 -73 -32 -73 -13 0 6 -31 28
-68 48 -83 45 -172 112 -235 177 l-49 50 57 26 c132 60 295 180 295 216 0 28
6 26 61 -24z m1304 -234 c-79 -160 -110 -261 -122 -397 -4 -50 -10 -74 -17
-71 -159 73 -298 109 -468 121 -67 5 -98 11 -98 19 0 7 42 40 93 73 50 33 126
93 167 133 66 63 82 74 134 86 67 17 256 94 301 124 20 13 33 16 41 9 10 -8 3
-31 -31 -97z m-829 -12 c83 -25 237 -50 317 -50 42 0 57 -4 57 -14 0 -32 -157
-151 -303 -231 l-69 -38 -120 1 c-126 0 -189 6 -275 24 -73 15 -70 35 10 82
72 42 186 138 248 209 23 26 47 46 54 43 7 -2 44 -14 81 -26z"/>
<path d="M5130 9656 c0 -185 1 -198 18 -191 31 13 196 43 270 50 l74 7 -69 46
c-68 46 -202 173 -261 247 l-31 40 -1 -199z"/>
<path d="M6238 9495 c-93 -37 -224 -64 -319 -66 -33 -1 -59 -6 -59 -10 0 -5 4
-9 9 -9 16 0 146 -101 207 -160 55 -55 67 -62 138 -80 43 -11 121 -40 173 -65
52 -24 93 -41 91 -37 -81 171 -113 267 -131 385 -6 42 -14 77 -17 76 -3 0 -44
-16 -92 -34z"/>
<path d="M5331 9409 c-30 -5 -56 -11 -58 -12 -1 -2 28 -23 65 -47 37 -24 108
-84 158 -132 l90 -87 64 20 c84 26 219 49 289 49 l56 0 -25 21 c-71 57 -133
101 -213 147 l-88 52 -142 -1 c-78 -1 -166 -5 -196 -10z"/>
<path d="M5130 9110 l0 -240 80 63 c44 35 123 86 175 112 52 27 95 52 95 56 0
14 -124 121 -197 170 -65 44 -130 79 -148 79 -3 0 -5 -108 -5 -240z"/>
<path d="M5875 9100 c-64 -7 -199 -36 -217 -47 -4 -2 14 -36 41 -76 57 -84 90
-147 121 -235 23 -62 24 -63 54 -58 100 19 212 27 294 20 63 -4 92 -3 92 4 0
54 -109 308 -158 369 -21 26 -117 36 -227 23z"/>
<path d="M6230 9064 c0 -3 13 -30 29 -62 33 -66 73 -181 91 -265 11 -49 17
-58 39 -63 72 -15 234 -70 294 -101 67 -33 68 -33 62 -11 -18 60 -111 245
-160 319 -11 16 -100 72 -180 112 -64 32 -175 77 -175 71z"/>
<path d="M5450 8972 c-89 -45 -184 -108 -223 -149 l-28 -30 32 -39 c46 -57 78
-108 129 -207 l46 -88 26 20 c44 35 176 110 241 137 34 14 66 29 70 33 4 5 -6
44 -23 87 -52 130 -146 274 -178 274 -10 -1 -51 -18 -92 -38z"/>
<path d="M6770 8751 c32 -63 76 -182 90 -241 11 -47 23 -66 85 -131 40 -42 93
-107 118 -143 l44 -66 7 82 c10 119 33 221 70 315 32 80 32 82 12 87 -12 3
-33 6 -47 6 -50 0 -218 50 -305 90 -48 22 -89 40 -91 40 -2 0 6 -18 17 -39z"/>
<path d="M5925 8596 l-60 -11 5 -35 c3 -19 5 -108 5 -196 l0 -162 135 2 c74 0
163 -3 197 -7 l61 -8 13 58 c14 62 18 265 6 324 -7 34 -10 37 -54 43 -70 9
-241 5 -308 -8z"/>
<path d="M6389 8458 c2 -68 -2 -160 -9 -205 -7 -46 -11 -86 -10 -90 2 -5 28
-18 59 -29 77 -29 153 -68 235 -121 37 -24 71 -42 73 -39 3 3 14 40 25 83 21
82 35 320 21 339 -12 15 -91 68 -142 93 -32 17 -240 91 -254 91 -1 0 0 -55 2
-122z"/>
<path d="M5671 8510 c-77 -37 -216 -123 -226 -140 -3 -4 4 -34 15 -66 12 -33
28 -86 36 -119 9 -33 18 -63 20 -66 2 -4 61 8 131 26 l128 32 9 86 c10 96 -3
278 -19 284 -6 2 -48 -15 -94 -37z"/>
<path d="M6885 8223 c-3 -43 -20 -133 -36 -201 l-30 -123 89 -94 c49 -51 107
-121 128 -154 22 -33 42 -61 45 -61 10 0 19 77 26 232 l6 147 -48 83 c-44 76
-162 248 -170 248 -2 0 -6 -35 -10 -77z"/>
<path d="M5883 8094 c-15 -4 -25 -15 -29 -32 -3 -15 -17 -71 -31 -126 -13 -54
-22 -100 -21 -102 5 -5 236 -74 248 -74 26 0 202 311 185 328 -7 8 -321 12
-352 6z"/>
<path d="M6291 7966 c-24 -53 -65 -128 -92 -168 -27 -40 -49 -76 -49 -79 0 -3
19 -14 43 -25 65 -29 185 -101 241 -145 l50 -40 19 23 c68 85 114 153 147 218
60 120 60 113 -12 166 -67 49 -223 128 -273 138 -30 6 -31 5 -74 -88z"/>
<path d="M7197 7713 c-4 -49 -17 -128 -29 -178 l-23 -90 22 -89 c13 -49 26
-130 30 -180 l8 -91 59 84 c63 90 158 190 232 243 l46 33 -34 25 c-70 52 -182
168 -240 248 -33 45 -61 82 -63 82 -1 0 -5 -39 -8 -87z"/>
<path d="M6742 7722 c-46 -92 -108 -186 -158 -242 -31 -34 -33 -39 -17 -51 36
-30 132 -170 172 -254 l43 -88 55 59 c73 78 125 148 169 229 l37 67 -23 47
c-35 74 -103 170 -173 246 l-64 70 -41 -83z"/>
<path d="M5994 7542 l-91 -97 92 -97 92 -96 89 43 c102 49 238 141 229 156
-12 18 -150 106 -232 148 -46 22 -84 41 -85 41 -2 0 -44 -44 -94 -98z"/>
<path d="M6455 7360 c-24 -27 -153 -109 -235 -150 -36 -18 -67 -34 -68 -35 -2
-2 9 -23 25 -47 48 -70 108 -179 133 -240 13 -32 28 -58 34 -58 48 1 328 152
351 190 8 13 -30 100 -78 182 -43 72 -124 178 -136 178 -4 0 -16 -9 -26 -20z"/>
<path d="M7030 7232 c-25 -37 -83 -105 -128 -152 l-84 -85 17 -65 c28 -106 42
-180 50 -262 l7 -77 27 32 c34 39 94 129 149 223 41 69 42 72 42 165 0 103
-17 270 -28 281 -4 3 -27 -24 -52 -60z"/>
<path d="M5945 7104 c-55 -18 -111 -33 -124 -33 -19 -1 -22 -5 -18 -23 40
-176 57 -241 62 -247 9 -8 362 -8 371 1 15 16 -137 293 -178 325 -9 7 -45 -1
-113 -23z"/>
<path d="M6670 6882 c-71 -49 -201 -113 -268 -133 -24 -7 -41 -17 -38 -24 15
-41 28 -180 25 -283 -5 -142 -12 -135 105 -97 96 31 215 89 261 128 l35 28 0
88 c0 89 -19 222 -42 297 l-13 41 -65 -45z"/>
<path d="M5483 6668 c-17 -62 -34 -120 -38 -129 -5 -13 14 -30 78 -73 91 -61
232 -130 246 -121 14 8 24 175 16 278 l-7 94 -122 29 c-66 16 -125 30 -131 31
-5 2 -24 -47 -42 -109z"/>
<path d="M7060 6651 c-25 -36 -77 -100 -116 -141 -49 -51 -74 -86 -79 -110
-12 -56 -45 -150 -81 -225 -18 -38 -32 -70 -31 -72 2 -1 31 11 66 28 94 45
226 86 318 99 l81 12 -28 67 c-39 91 -58 172 -73 300 l-12 108 -45 -66z"/>
<path d="M6145 6699 c-38 -5 -115 -6 -170 -3 l-100 6 0 -199 0 -198 75 -13
c70 -12 314 -11 327 2 3 3 10 44 16 93 9 82 -2 263 -20 308 -6 16 -20 17 -128
4z"/>
<path d="M5379 6378 c-29 -62 -118 -208 -154 -250 l-26 -31 23 -24 c55 -59
280 -193 324 -193 27 0 124 154 172 274 35 87 37 96 21 96 -23 0 -195 88 -263
133 -38 26 -70 47 -71 47 -1 0 -12 -23 -26 -52z"/>
<path d="M6720 6335 c-59 -33 -180 -79 -264 -100 l-90 -23 -22 -83 c-27 -100
-67 -211 -95 -258 -11 -18 -18 -36 -15 -38 9 -9 139 47 239 104 83 46 104 63
131 106 56 87 153 293 144 302 -2 2 -14 -3 -28 -10z"/>
<path d="M5830 6174 c-25 -76 -78 -183 -129 -257 l-51 -76 33 -10 c79 -26 187
-41 290 -41 l112 0 32 48 c17 26 45 74 61 107 29 58 82 213 82 239 0 9 -19 10
-82 4 -75 -7 -189 0 -299 18 -35 6 -37 5 -49 -32z"/>
<path d="M5130 5781 c0 -133 2 -241 5 -241 12 0 112 54 154 83 59 40 191 156
191 168 0 5 -39 29 -87 53 -76 38 -134 77 -240 159 l-23 19 0 -241z"/>
<path d="M6417 5799 c-63 -32 -224 -89 -253 -89 -10 0 -50 -31 -89 -69 -38
-38 -103 -92 -143 -119 l-73 -50 58 -6 c130 -14 203 -29 293 -60 52 -18 102
-36 110 -40 13 -5 18 8 28 78 14 98 48 208 97 312 18 41 33 74 32 74 -1 -1
-28 -14 -60 -31z"/>
<path d="M5494 5671 c-51 -49 -122 -108 -158 -132 -66 -43 -66 -44 -39 -52 15
-4 105 -11 198 -14 l170 -6 95 58 c52 31 126 80 163 108 l69 52 -89 8 c-73 6
-163 25 -298 61 -15 5 -42 -15 -111 -83z"/>
<path d="M3896 9538 c-3 -24 -8 -65 -12 -93 -11 -86 -53 -213 -105 -317 -30
-62 -46 -105 -41 -110 6 -6 50 10 113 40 100 48 198 83 267 97 19 4 40 17 49
32 22 33 167 152 242 197 56 34 79 66 49 66 -7 0 -64 5 -127 10 -153 14 -274
46 -381 100 -22 11 -41 20 -44 20 -3 0 -7 -19 -10 -42z m143 -48 c93 -34 226
-60 307 -60 30 0 54 -4 54 -8 0 -4 -29 -27 -64 -50 -36 -23 -101 -76 -144
-117 -44 -41 -87 -75 -97 -75 -29 0 -197 -60 -252 -90 -29 -15 -53 -25 -53
-20 0 4 18 45 39 91 48 101 79 210 88 302 5 57 9 68 22 63 9 -3 54 -19 100
-36z"/>
<path d="M4498 9398 c-108 -62 -142 -86 -225 -156 -69 -58 -63 -72 32 -72 80
0 201 -20 313 -52 l73 -21 87 87 c48 49 129 115 180 149 50 33 92 64 92 69 0
25 -137 47 -323 52 l-127 3 -102 -59z m470 5 c21 -8 18 -12 -49 -58 -39 -27
-110 -86 -156 -132 l-85 -83 -66 20 c-81 25 -220 50 -278 50 -24 0 -44 4 -44
9 0 15 86 80 197 147 l108 66 175 -5 c96 -2 185 -8 198 -14z"/>
<path d="M4200 9132 c-42 -7 -46 -10 -91 -82 -25 -41 -59 -106 -74 -145 -26
-65 -76 -237 -71 -243 2 -1 47 2 102 8 99 10 240 2 329 -20 22 -5 43 -10 46
-10 4 0 12 21 18 48 18 70 92 217 154 304 l55 76 -72 21 c-130 38 -300 57
-396 43z m190 -33 c91 -11 200 -36 213 -48 4 -4 -13 -39 -39 -77 -58 -86 -96
-162 -120 -237 l-18 -59 -41 7 c-115 18 -209 25 -292 19 l-92 -7 20 74 c31
112 115 287 152 318 27 21 102 25 217 10z"/>
<path d="M3985 9081 c-87 -35 -133 -57 -239 -116 -81 -46 -85 -50 -130 -130
-99 -176 -158 -322 -135 -335 6 -5 43 9 83 31 74 40 249 101 322 114 l42 6 12
61 c17 86 65 221 109 303 37 68 42 96 18 94 -7 0 -43 -13 -82 -28z m30 -63
c-35 -64 -64 -143 -90 -243 -13 -49 -29 -93 -36 -96 -8 -4 -60 -19 -116 -34
-56 -15 -135 -44 -177 -64 -54 -26 -76 -33 -76 -23 0 23 64 162 116 252 48 81
53 86 134 133 93 54 225 115 252 116 14 1 13 -5 -7 -41z"/>
<path d="M4644 8977 c-71 -101 -88 -132 -124 -219 -39 -98 -47 -138 -29 -138
43 -1 243 -105 337 -176 l44 -33 49 100 c50 103 108 194 160 253 l29 33 -49
46 c-68 64 -185 139 -275 176 -41 17 -78 31 -83 31 -4 0 -31 -33 -59 -73z
m191 -14 c61 -31 124 -74 187 -125 l47 -39 -54 -71 c-42 -56 -94 -147 -152
-266 0 -2 -29 16 -63 39 -67 45 -204 119 -258 137 l-32 11 20 53 c36 92 77
171 129 245 l51 72 37 -16 c21 -8 61 -27 88 -40z"/>
<path d="M3460 8804 c-111 -58 -245 -101 -362 -115 -51 -6 -94 -12 -96 -14 -2
-2 8 -25 21 -52 55 -110 90 -257 101 -421 7 -117 17 -127 55 -59 39 69 126
182 186 241 41 42 57 66 65 99 16 72 59 186 102 269 35 68 42 100 20 97 -4 0
-45 -21 -92 -45z m15 -96 c-19 -41 -46 -114 -60 -163 -23 -81 -30 -93 -95
-162 -39 -42 -89 -104 -112 -139 -23 -35 -46 -64 -50 -64 -4 0 -8 24 -8 54 0
85 -28 220 -65 321 -19 51 -35 96 -35 99 0 3 19 6 43 6 82 0 272 57 387 117
13 7 25 11 27 9 2 -1 -12 -37 -32 -78z"/>
<path d="M4000 8632 l-45 -7 -8 -55 c-11 -75 -3 -313 13 -378 12 -47 16 -53
34 -48 62 18 239 27 332 18 54 -6 99 -9 100 -8 0 0 -4 46 -10 101 -8 87 0 267
16 334 6 26 -79 43 -237 46 -82 2 -170 0 -195 -3z m331 -33 l69 -12 -7 -66
c-5 -36 -8 -125 -7 -197 l1 -131 -141 1 c-78 0 -166 -3 -197 -7 l-57 -8 -11
64 c-12 70 -15 237 -5 310 6 42 9 46 38 50 70 9 252 6 317 -4z"/>
<path d="M3875 8608 c-126 -27 -329 -115 -400 -173 l-30 -25 1 -122 c1 -119
13 -200 49 -320 l16 -57 77 55 c85 61 206 123 295 150 51 16 57 21 52 39 -3
11 -13 67 -22 125 -13 88 -14 124 -5 219 7 63 11 115 9 116 -1 1 -20 -2 -42
-7z m0 -125 c-6 -87 0 -176 21 -294 6 -35 5 -35 -37 -48 -70 -21 -178 -74
-253 -124 -38 -26 -72 -47 -76 -47 -23 0 -66 289 -55 375 5 46 12 59 38 79 62
47 276 138 366 155 2 1 0 -43 -4 -96z"/>
<path d="M4465 8579 c-9 -25 -22 -222 -19 -273 9 -115 16 -157 27 -160 45 -13
288 -68 293 -68 4 1 17 39 29 84 12 46 31 112 43 148 15 44 19 67 12 75 -20
24 -153 108 -239 151 -103 51 -139 62 -146 43z m119 -63 c55 -25 197 -111 235
-142 3 -3 -67 -256 -72 -259 -1 -1 -59 12 -129 29 -104 25 -128 35 -132 51 -8
28 -7 286 0 324 4 17 11 31 16 31 5 0 42 -15 82 -34z"/>
<path d="M3333 8303 c-47 -57 -126 -174 -173 -258 l-33 -60 1 -135 c2 -136 5
-171 23 -267 12 -60 29 -68 55 -25 57 94 100 148 183 234 l94 98 -26 92 c-33
118 -47 204 -47 296 0 63 -2 72 -18 72 -11 0 -37 -21 -59 -47z m47 -63 c0 -54
30 -217 54 -295 l16 -50 -54 -50 c-61 -57 -150 -161 -185 -219 -24 -38 -25
-38 -33 -16 -10 28 -30 255 -27 313 1 23 9 56 17 72 51 102 183 295 203 295 5
0 9 -22 9 -50z"/>
<path d="M4070 8125 c-8 -2 -31 -6 -51 -10 l-37 -6 19 -50 c31 -80 66 -146
133 -247 50 -76 64 -92 81 -88 16 4 237 68 282 81 9 3 9 14 -2 47 -8 24 -26
92 -40 152 -13 59 -27 111 -30 114 -7 7 -331 13 -355 7z m309 -31 c19 -4 31
-13 31 -23 0 -9 13 -67 29 -128 16 -62 28 -113 26 -113 -1 0 -55 -16 -121 -35
-65 -19 -123 -35 -129 -35 -24 0 -185 276 -185 317 0 6 12 14 28 16 45 7 287
7 321 1z"/>
<path d="M3828 8061 c-53 -21 -134 -64 -180 -95 -109 -73 -118 -81 -118 -97 0
-23 95 -210 131 -260 19 -25 53 -67 76 -93 l42 -48 43 35 c63 52 207 140 281
172 l65 29 -55 80 c-53 77 -128 218 -151 285 -6 17 -17 31 -24 31 -7 0 -57
-18 -110 -39z m150 -103 c27 -57 70 -134 94 -171 l45 -69 -96 -49 c-53 -27
-126 -72 -164 -100 -37 -28 -74 -49 -81 -46 -34 13 -154 198 -200 308 l-15 36
62 45 c85 62 249 145 294 147 6 1 34 -45 61 -101z"/>
<path d="M2998 7773 c-75 -111 -193 -233 -273 -284 -30 -19 -54 -36 -55 -39 0
-3 37 -33 82 -65 91 -67 197 -184 265 -292 25 -40 50 -73 57 -73 8 0 16 44 24
133 6 72 21 168 32 212 l21 81 -21 79 c-11 44 -26 140 -33 213 -7 82 -15 132
-22 132 -6 0 -41 -44 -77 -97z m71 -78 c7 -55 21 -134 32 -176 l20 -75 -20
-73 c-11 -40 -25 -118 -31 -174 -7 -56 -13 -103 -14 -104 -1 -2 -22 27 -46 64
-59 88 -129 164 -217 234 l-71 56 64 47 c74 55 156 143 221 238 26 37 48 67
49 65 1 -1 7 -47 13 -102z"/>
<path d="M3424 7782 c-79 -77 -149 -170 -199 -267 -34 -65 -34 -67 -19 -103
32 -79 112 -191 198 -280 l89 -93 51 104 c54 108 123 212 175 261 17 17 31 34
31 39 0 5 -20 31 -45 59 -63 70 -128 171 -166 258 -18 41 -35 78 -39 83 -3 4
-38 -23 -76 -61z m227 -261 l60 -73 -25 -31 c-68 -83 -121 -163 -160 -241
l-42 -85 -56 57 c-30 31 -69 76 -86 99 -47 60 -112 175 -112 196 0 46 96 193
189 290 l65 68 53 -104 c29 -58 81 -137 114 -176z"/>
<path d="M4090 7632 c-102 -50 -224 -128 -259 -166 l-22 -24 43 -34 c94 -76
305 -193 333 -186 5 2 58 53 116 113 l107 110 -112 117 -111 116 -95 -46z
m268 -184 c-7 -20 -173 -188 -186 -188 -23 0 -172 79 -250 133 l-74 51 24 18
c57 45 140 96 218 135 l84 43 93 -92 c51 -51 92 -96 91 -100z"/>
<path d="M3704 7338 c-70 -89 -181 -296 -171 -321 8 -22 105 -91 191 -138 83
-45 217 -93 226 -82 4 5 17 35 30 68 30 78 71 152 136 247 l53 76 -67 29 c-77
32 -214 116 -274 168 -23 19 -45 35 -50 35 -4 0 -37 -37 -74 -82z m326 -119
l89 -45 -45 -68 c-25 -38 -69 -115 -97 -173 -48 -99 -52 -104 -76 -98 -46 11
-187 81 -249 123 -98 67 -96 62 -62 138 35 78 105 187 155 242 l36 40 79 -56
c44 -32 120 -78 170 -103z"/>
<path d="M3151 7308 c-19 -100 -21 -124 -22 -265 l-2 -141 63 -106 c79 -131
178 -258 199 -254 13 3 17 23 22 103 7 114 11 135 46 263 l26 93 -85 87 c-90
93 -157 178 -185 236 -25 54 -49 48 -62 -16z m109 -110 c28 -37 81 -98 120
-136 l69 -68 -19 -65 c-26 -83 -50 -219 -50 -280 0 -27 -4 -49 -9 -49 -14 0
-88 101 -156 214 -54 90 -63 113 -64 154 0 64 17 281 26 311 6 24 7 24 20 5 8
-10 36 -49 63 -86z"/>
<path d="M4150 7107 c-50 -69 -160 -281 -160 -307 0 -10 10 -21 23 -25 35 -11
296 -17 361 -8 l59 8 17 86 c10 47 25 111 34 141 22 78 21 85 -19 92 -19 4
-83 22 -142 41 -59 19 -112 35 -118 35 -5 0 -30 -29 -55 -63z m103 18 c20 -8
71 -24 114 -35 43 -12 83 -23 89 -25 7 -2 0 -47 -21 -132 -38 -150 -25 -140
-195 -142 -137 -1 -210 8 -210 26 0 32 166 323 184 323 2 0 20 -7 39 -15z"/>
<path d="M3501 6947 c-43 -135 -66 -301 -56 -403 l7 -73 70 -45 c38 -25 104
-59 145 -76 82 -34 238 -78 247 -69 3 3 1 43 -5 90 -12 93 -5 221 17 318 15
66 11 80 -24 81 -36 0 -199 79 -288 139 l-103 69 -10 -31z m101 -68 c64 -44
224 -123 271 -135 26 -6 28 -10 23 -36 -18 -90 -27 -223 -21 -300 8 -103 14
-100 -107 -62 -91 29 -180 71 -245 115 -38 26 -42 34 -48 84 -12 90 32 375 57
375 5 0 36 -19 70 -41z"/>
<path d="M4690 6799 c-36 -11 -101 -27 -144 -37 -74 -16 -80 -19 -88 -47 -9
-34 -12 -298 -4 -338 3 -15 8 -38 11 -52 3 -14 11 -25 18 -25 6 0 62 24 122
54 133 65 259 151 251 172 -12 32 -65 211 -73 248 -5 22 -13 40 -18 42 -6 1
-39 -7 -75 -17z m70 -61 c6 -24 23 -80 37 -125 21 -68 24 -85 13 -98 -27 -33
-278 -175 -309 -175 -5 0 -11 14 -15 31 -8 39 -8 296 0 325 5 17 26 26 122 51
64 16 122 31 129 31 7 1 17 -17 23 -40z"/>
<path d="M3136 6782 c-3 -5 -10 -62 -15 -128 -15 -166 -36 -243 -117 -430 -4
-8 18 -14 63 -19 153 -16 280 -55 423 -131 38 -20 68 -30 73 -25 6 6 -11 50
-41 113 -28 57 -63 146 -78 198 -26 92 -29 98 -103 175 -42 44 -101 119 -131
167 -54 86 -64 96 -74 80z m79 -143 c26 -38 79 -102 116 -141 38 -39 69 -80
69 -90 0 -31 48 -168 86 -242 19 -37 29 -66 22 -63 -7 3 -53 23 -103 45 -88
39 -214 75 -307 88 -27 3 -48 8 -48 9 0 2 13 36 29 77 35 88 71 255 71 332 0
31 4 56 8 56 5 0 30 -32 57 -71z"/>
<path d="M3960 6697 c-17 -71 -24 -237 -15 -340 8 -102 -2 -96 175 -104 95 -4
147 -1 215 12 49 9 92 18 95 20 4 2 0 43 -7 92 -13 82 -11 309 2 345 4 10 -33
13 -182 13 -104 0 -207 3 -230 7 l-41 8 -12 -53z m300 1 l125 1 2 -167 c1 -92
4 -180 5 -197 3 -30 3 -30 -72 -43 -87 -15 -316 -10 -333 7 -17 17 -22 255 -7
341 l12 72 72 -8 c39 -4 127 -7 196 -6z"/>
<path d="M4835 6454 c-51 -43 -218 -138 -288 -164 -37 -14 -67 -30 -67 -36 0
-67 150 -350 214 -403 31 -26 249 91 365 195 l50 45 -64 85 c-36 46 -89 134
-117 194 -29 60 -55 109 -58 109 -3 0 -18 -11 -35 -25z m48 -68 c24 -59 90
-167 143 -237 l43 -57 -77 -61 c-74 -59 -241 -151 -272 -151 -37 1 -200 285
-200 350 0 11 22 25 67 44 69 28 170 85 233 130 19 14 37 25 40 25 3 1 13 -19
23 -43z"/>
<path d="M3475 6391 c-14 -23 85 -250 160 -367 25 -39 50 -61 111 -97 147 -86
296 -146 329 -133 14 5 11 15 -20 70 -43 77 -86 193 -110 297 l-18 77 -91 22
c-96 23 -236 78 -298 117 -41 25 -54 28 -63 14z m127 -81 c79 -37 241 -90 277
-90 14 0 25 -26 50 -117 18 -65 49 -153 70 -196 l38 -78 -26 5 c-44 10 -292
139 -320 166 -38 39 -196 350 -177 350 2 0 42 -18 88 -40z"/>
<path d="M4355 6233 c-43 -10 -108 -13 -226 -10 l-165 3 13 -60 c30 -129 81
-248 150 -353 l36 -53 118 0 c64 0 150 6 191 14 94 18 188 45 188 54 0 4 -23
39 -51 77 -57 78 -119 201 -146 288 -19 63 -16 62 -108 40z m89 -79 c22 -69
86 -192 133 -257 20 -27 32 -52 27 -56 -23 -22 -149 -43 -280 -48 l-141 -5
-26 33 c-60 80 -167 344 -150 372 3 4 14 5 24 2 29 -9 257 -6 304 4 85 18 90
17 109 -45z"/>
<path d="M3736 5871 c-4 -5 12 -42 33 -83 58 -106 108 -266 119 -376 5 -51 11
-95 14 -97 2 -2 32 9 66 25 101 49 222 79 368 92 90 8 134 16 134 24 0 6 -30
31 -66 54 -87 57 -127 90 -199 160 -51 50 -69 61 -125 75 -76 19 -205 72 -270
109 -48 28 -65 31 -74 17z m263 -132 c47 -16 92 -29 100 -29 9 0 49 -31 89
-70 41 -38 105 -91 144 -117 l71 -48 -54 -8 c-181 -26 -253 -42 -330 -72 -48
-19 -89 -35 -93 -35 -3 0 -6 20 -6 44 0 61 -41 215 -85 316 -20 47 -39 91 -42
98 -3 8 22 0 58 -19 35 -17 102 -45 148 -60z"/>
<path d="M4611 5773 c-90 -29 -235 -53 -317 -53 -45 0 -63 -4 -67 -15 -8 -20
124 -124 259 -204 l106 -64 176 6 c173 6 272 21 279 44 2 6 -35 36 -82 67 -48
31 -130 99 -183 150 l-97 93 -74 -24z m147 -90 c43 -43 113 -103 156 -133 76
-54 76 -55 49 -63 -15 -5 -103 -11 -195 -14 l-168 -6 -72 43 c-85 50 -220 143
-236 163 -10 12 1 15 69 21 86 7 185 26 259 50 25 8 48 15 52 15 5 1 43 -34
86 -76z"/>
<path d="M970 7020 l0 -3300 1833 0 c2015 0 1905 3 2037 -62 133 -65 249 -217
281 -367 l12 -56 13 61 c37 179 172 330 354 396 l65 23 1868 3 1867 2 0 3300
0 3300 -172 -2 -173 -3 -3 -3127 -2 -3128 -1603 0 c-1563 0 -1606 0 -1681 -20
-275 -70 -494 -317 -528 -595 -4 -29 -4 -28 -12 10 -16 88 -61 209 -98 268
-88 138 -229 250 -379 303 l-84 29 -1627 3 -1628 2 0 3130 0 3130 -170 0 -170
0 0 -3300z"/>
<path d="M6589 2938 c-53 -66 -108 -125 -324 -352 -202 -212 -262 -286 -302
-369 -50 -103 -50 -119 -1 -62 58 68 155 173 253 275 160 168 303 328 348 388
42 57 86 157 74 168 -2 3 -24 -19 -48 -48z"/>
<path d="M3655 2823 c-114 -144 -385 -461 -690 -809 -116 -132 -226 -259 -245
-282 -18 -23 -36 -42 -40 -42 -3 0 11 134 31 298 52 420 55 459 36 443 -9 -7
-24 -36 -33 -64 -9 -29 -34 -96 -55 -150 -50 -125 -52 -136 -94 -449 -19 -145
-44 -319 -55 -388 -30 -188 -35 -320 -16 -409 29 -138 90 -201 194 -201 139 0
250 97 359 315 111 221 139 422 73 515 -54 76 -122 112 -216 114 -30 0 -54 2
-54 4 0 2 69 82 153 179 83 97 168 195 187 217 19 23 111 128 203 234 185 212
252 297 297 376 40 69 91 227 73 225 -5 0 -53 -57 -108 -126z m-734 -1450 c58
-23 89 -65 89 -120 0 -64 -51 -115 -132 -133 -134 -30 -239 58 -226 190 7 79
148 112 269 63z"/>
<path d="M6579 2728 c-260 -313 -752 -873 -997 -1137 l-43 -46 7 55 c3 30 23
181 45 335 47 342 55 424 41 410 -11 -10 -98 -232 -125 -320 -28 -87 -46 -194
-82 -484 -43 -351 -50 -464 -36 -564 14 -101 44 -168 94 -213 39 -35 42 -36
101 -32 81 7 165 47 214 103 54 62 93 139 147 295 26 74 50 138 54 142 4 4 52
-8 106 -26 470 -162 993 -102 1580 178 449 215 762 502 945 867 49 97 144 359
133 369 -3 3 -22 -14 -43 -38 -44 -49 -105 -167 -150 -287 -35 -94 -75 -145
-195 -251 -221 -192 -412 -307 -690 -417 -326 -128 -602 -180 -950 -180 -214
0 -336 15 -595 69 -126 27 -190 36 -272 37 l-107 0 17 23 c38 49 584 698 691
822 162 186 217 258 251 328 30 62 64 184 51 184 -4 0 -90 -100 -192 -222z
m-764 -1362 c126 -53 127 -149 2 -213 -71 -37 -186 -39 -233 -6 -40 29 -64 80
-63 135 1 61 11 80 50 95 46 17 192 11 244 -11z"/>
<path d="M8236 2918 c-13 -18 -44 -73 -67 -122 -40 -82 -42 -90 -28 -114 14
-26 141 -102 170 -102 19 0 90 74 113 118 9 17 16 53 16 80 0 57 -36 115 -93
151 -50 30 -81 27 -111 -11z"/>
<path d="M7329 2867 c-49 -60 -108 -195 -91 -206 5 -3 32 -26 61 -51 71 -61
84 -65 120 -34 45 37 95 145 87 186 -10 51 -41 95 -85 118 -53 27 -61 26 -92
-13z"/>
<path d="M7503 2597 c-11 -12 -39 -50 -62 -85 l-42 -62 -52 46 c-29 25 -67 52
-85 59 -30 13 -32 13 -60 -21 -33 -39 -111 -173 -118 -202 -4 -13 11 -34 54
-74 95 -87 134 -85 188 9 54 96 53 94 75 82 12 -6 40 -31 63 -55 68 -71 111
-57 181 60 70 120 38 204 -99 256 -19 7 -28 4 -43 -13z"/>
<path d="M2287 1997 c-83 -167 -82 -164 -79 -412 1 -140 -2 -238 -9 -270 -62
-270 -417 -511 -749 -508 -159 2 -273 51 -337 146 -77 114 -66 270 36 542 23
60 39 110 37 112 -8 9 -54 -66 -90 -146 -99 -221 -152 -441 -143 -596 10 -194
88 -310 245 -368 71 -26 245 -35 335 -17 243 47 492 281 656 613 69 141 115
305 141 507 16 123 25 476 13 483 -6 4 -31 -35 -56 -86z"/>
<path d="M8732 1968 c-34 -55 -89 -188 -111 -268 -26 -92 -45 -230 -71 -510
-11 -118 -23 -240 -27 -270 -6 -51 -5 -54 11 -41 25 21 62 97 96 200 35 104
62 272 85 526 9 99 23 227 31 284 8 57 12 106 10 108 -2 2 -13 -11 -24 -29z"/>
<path d="M4526 1948 c-27 -41 -93 -191 -110 -250 -34 -118 -48 -218 -76 -531
-12 -125 -24 -248 -29 -273 -11 -57 2 -65 32 -17 87 142 122 295 162 708 13
143 30 286 36 318 12 66 8 80 -15 45z"/>
<path d="M1624 1608 c-57 -68 -117 -226 -97 -254 9 -11 114 -83 150 -103 62
-32 163 107 163 224 0 38 -6 52 -37 86 -39 43 -99 79 -132 79 -10 0 -32 -15
-47 -32z"/>
<path d="M3410 1587 c-31 -48 -102 -203 -107 -233 -5 -28 1 -36 65 -93 81 -72
119 -133 108 -175 -10 -39 -94 -126 -201 -206 -77 -58 -115 -96 -115 -114 0
-12 134 29 196 59 108 53 193 160 246 308 32 89 32 232 1 300 -33 71 -75 120
-130 149 l-49 27 -14 -22z"/>
<path d="M4973 1577 c-47 -26 -81 -91 -121 -235 -17 -58 -18 -74 -8 -78 10 -4
6 -18 -14 -57 -72 -133 -78 -307 -14 -378 9 -10 34 -24 54 -30 95 -29 201 54
284 222 126 256 110 483 -39 550 -46 21 -110 24 -142 6z m45 -349 c47 -22 82
-68 82 -107 0 -53 -114 -120 -181 -106 -73 16 -85 83 -43 232 5 18 87 6 142
-19z"/>
<path d="M9030 1459 c-33 -66 -60 -130 -60 -142 0 -14 30 -51 84 -103 126
-121 126 -156 2 -272 -37 -34 -92 -80 -124 -103 -54 -39 -102 -86 -102 -101 0
-13 128 24 197 57 88 43 155 114 206 216 115 234 73 459 -103 549 l-39 20 -61
-121z"/>
<path d="M4127 1500 c-9 -19 -41 -91 -70 -160 -29 -69 -77 -162 -105 -206 -66
-102 -208 -240 -327 -318 -94 -62 -118 -83 -109 -97 8 -13 81 -10 157 6 183
38 282 155 392 460 56 155 87 276 83 319 l-4 31 -17 -35z"/>
</g>
</svg>
