<svg id="Line" xmlns="http://www.w3.org/2000/svg" viewBox="0 0 64 64"><title>1</title><path d="M41.15137,21.30176A9.16155,9.16155,0,0,0,32,12.15088c-12.137.49372-12.13352,17.80988.00008,18.30177A9.16155,9.16155,0,0,0,41.15137,21.30176Zm-16.30274,0A7.15926,7.15926,0,0,1,32,14.15088c9.46489.33583,9.46246,13.96735-.00012,14.30176A7.15924,7.15924,0,0,1,24.84863,21.30176Z"/><path d="M10.0332,60H53.9668a3.05184,3.05184,0,0,0,2.97749-3.63138l-3.2607-16.30319a3.05033,3.05033,0,0,0-2.97754-2.44287H43.12268c22.90764-32.85237-25.58451-47.584-28.425-16.32077.00054,5.28158,2.84557,11.19638,6.17968,16.32077H13.294a3.05017,3.05017,0,0,0-2.97754,2.44433L7.05566,56.36719A3.05221,3.05221,0,0,0,10.0332,60ZM32,6A15.319,15.319,0,0,1,47.30176,21.30176c0,10.23974-12.2041,23.8081-15.30176,27.08691C28.90234,45.10986,16.69824,31.5415,16.69824,21.30176A15.319,15.319,0,0,1,32,6ZM9.0166,56.76123l3.26074-16.30029a1.043,1.043,0,0,1,1.01661-.83838h8.93359a91.27937,91.27937,0,0,0,7.44092,9.20752H25.88672a1.00019,1.00019,0,0,0,.00006,2h12.2265a1.00019,1.00019,0,0,0-.00006-2H34.33154a91.278,91.278,0,0,0,7.44092-9.20752h8.93359a1.04312,1.04312,0,0,1,1.01661.83691L54.9834,56.7627a1.01462,1.01462,0,0,1-1.01655,1.23735L10.0332,58A1.01658,1.01658,0,0,1,9.0166,56.76123Z"/><path d="M21.02734,49.36523,19.169,52.90576H15.69727a1.00019,1.00019,0,0,0,.00006,2h4.07611a1.00005,1.00005,0,0,0,.88574-.53515l2.13965-4.07569A1.00051,1.00051,0,0,0,21.02734,49.36523Z"/><path d="M43.33984,54.37061a1.00008,1.00008,0,0,0,.88575.53515h4.07617a1.00019,1.00019,0,0,0-.00007-2H44.83008l-1.8584-3.54053a1.00051,1.00051,0,0,0-1.77145.92975Z"/><path d="M14.67773,44.7168h6.2168a1.00019,1.00019,0,0,0-.00006-2H14.67773A1.00019,1.00019,0,0,0,14.67773,44.7168Z"/><path d="M43.10449,44.7168h6.21582a1.00019,1.00019,0,0,0-.00006-2H43.10449A1.00019,1.00019,0,0,0,43.10449,44.7168Z"/></svg>